<svg width="24" height="25" viewBox="0 0 24 25" fill="none" xmlns="http://www.w3.org/2000/svg">
<path d="M16.455 7.955C16.6663 7.75383 16.9475 7.64262 17.2392 7.64483C17.531 7.64704 17.8104 7.76249 18.0187 7.96683C18.2269 8.17117 18.3476 8.44842 18.3553 8.74006C18.363 9.03171 18.2571 9.31494 18.06 9.53L12.075 17.015C11.9721 17.1258 11.8479 17.2148 11.7098 17.2766C11.5717 17.3383 11.4226 17.3716 11.2714 17.3744C11.1201 17.3772 10.9699 17.3494 10.8296 17.2928C10.6894 17.2363 10.5619 17.152 10.455 17.045L6.48599 13.076C6.37546 12.973 6.28681 12.8488 6.22532 12.7108C6.16383 12.5728 6.13077 12.4238 6.1281 12.2728C6.12544 12.1217 6.15323 11.9717 6.20981 11.8316C6.26639 11.6915 6.35061 11.5643 6.45743 11.4574C6.56426 11.3506 6.69151 11.2664 6.8316 11.2098C6.97168 11.1532 7.12172 11.1254 7.27278 11.1281C7.42383 11.1308 7.5728 11.1638 7.7108 11.2253C7.8488 11.2868 7.973 11.3755 8.07599 11.486L11.217 14.6255L16.4265 7.988C16.4359 7.97645 16.4459 7.96543 16.4565 7.955H16.455Z" fill="#00DBB1"/>
</svg>
