<svg width="25" height="25" viewBox="0 0 25 25" fill="none" xmlns="http://www.w3.org/2000/svg">
<path d="M14.9 19.8334C14.9 19.6565 14.8297 19.487 14.7047 19.3619C14.5797 19.2369 14.4101 19.1667 14.2333 19.1667H10.2333C10.0565 19.1667 9.88694 19.2369 9.76191 19.3619C9.63689 19.487 9.56665 19.6565 9.56665 19.8334C9.56665 20.0102 9.63689 20.1797 9.76191 20.3048C9.88694 20.4298 10.0565 20.5 10.2333 20.5H14.2333C14.4101 20.5 14.5797 20.4298 14.7047 20.3048C14.8297 20.1797 14.9 20.0102 14.9 19.8334Z" fill="#201F21"/>
<path d="M15.5267 16.5H11.5267C11.3498 16.5 11.1803 16.5702 11.0552 16.6953C10.9302 16.8203 10.86 16.9899 10.86 17.1667C10.86 17.3435 10.9302 17.513 11.0552 17.6381C11.1803 17.7631 11.3498 17.8333 11.5267 17.8333H15.5267C15.7035 17.8333 15.873 17.7631 15.9981 17.6381C16.1231 17.513 16.1933 17.3435 16.1933 17.1667C16.1933 16.9899 16.1231 16.8203 15.9981 16.6953C15.873 16.5702 15.7035 16.5 15.5267 16.5Z" fill="#201F21"/>
<path d="M15.1667 21.8333H11.1667C10.9899 21.8333 10.8203 21.9036 10.6953 22.0286C10.5702 22.1536 10.5 22.3232 10.5 22.5C10.5 22.6768 10.5702 22.8464 10.6953 22.9714C10.8203 23.0964 10.9899 23.1666 11.1667 23.1666H15.1667C15.3435 23.1666 15.513 23.0964 15.6381 22.9714C15.7631 22.8464 15.8333 22.6768 15.8333 22.5C15.8333 22.3232 15.7631 22.1536 15.6381 22.0286C15.513 21.9036 15.3435 21.8333 15.1667 21.8333Z" fill="#201F21"/>
<path d="M22.3 21.8333H17.6333C17.4565 21.8333 17.287 21.9036 17.1619 22.0286C17.0369 22.1536 16.9667 22.3232 16.9667 22.5C16.9667 22.6768 17.0369 22.8464 17.1619 22.9714C17.287 23.0964 17.4565 23.1666 17.6333 23.1666H22.3C22.4768 23.1666 22.6464 23.0964 22.7714 22.9714C22.8964 22.8464 22.9667 22.6768 22.9667 22.5C22.9667 22.3232 22.8964 22.1536 22.7714 22.0286C22.6464 21.9036 22.4768 21.8333 22.3 21.8333Z" fill="#201F21"/>
<path d="M22.9666 19.1667H18.3C18.1232 19.1667 17.9536 19.2369 17.8286 19.3619C17.7035 19.487 17.6333 19.6565 17.6333 19.8334C17.6333 20.0102 17.7035 20.1797 17.8286 20.3048C17.9536 20.4298 18.1232 20.5 18.3 20.5H22.9666C23.1434 20.5 23.313 20.4298 23.438 20.3048C23.5631 20.1797 23.6333 20.0102 23.6333 19.8334C23.6333 19.6565 23.5631 19.487 23.438 19.3619C23.313 19.2369 23.1434 19.1667 22.9666 19.1667Z" fill="#201F21"/>
<path d="M22.9934 17.8333C22.798 15.486 22.1601 13.1968 21.1134 11.0866C20.1107 9.1798 18.6659 7.54077 16.9 6.30665L18.5 2.77998C18.5516 2.67458 18.5745 2.55744 18.5663 2.44038C18.5581 2.32332 18.5191 2.2105 18.4534 2.11332C18.3927 2.02806 18.3128 1.95829 18.2201 1.90964C18.1275 1.861 18.0247 1.83485 17.92 1.83332H7.03336C6.92129 1.83304 6.81096 1.86102 6.71256 1.91467C6.61416 1.96832 6.53088 2.04591 6.47041 2.14027C6.40994 2.23463 6.37424 2.34271 6.36659 2.45453C6.35895 2.56634 6.37962 2.67827 6.4267 2.77998L8.06003 6.31998C6.30701 7.55527 4.87215 9.18891 3.87336 11.0866C2.44003 13.7533 1.99336 17.0133 1.87336 19.2733C1.85371 19.6042 1.9028 19.9355 2.01754 20.2464C2.13228 20.5574 2.31018 20.8412 2.54003 21.08C2.7816 21.3146 3.06764 21.4986 3.38134 21.6211C3.69503 21.7436 4.03005 21.8021 4.3667 21.7933H8.50003V20.5H4.31336C4.16249 20.4995 4.01326 20.4686 3.87464 20.409C3.73602 20.3494 3.61087 20.2625 3.5067 20.1533C3.40237 20.045 3.32179 19.9162 3.27013 19.775C3.21847 19.6338 3.19687 19.4833 3.2067 19.3333C3.30003 17.5933 3.6667 14.28 5.0467 11.7C6.01952 9.85138 7.45805 8.28876 9.22003 7.16665H9.88669C9.43493 7.79162 9.01871 8.44154 8.64003 9.11331C8.25434 9.82814 7.92662 10.5727 7.66003 11.34L8.57336 11.9533C8.8432 11.1573 9.17534 10.3838 9.5667 9.63998C10.0473 8.77509 10.5933 7.94823 11.2 7.16665H11.8667C12.3139 8.23557 12.6296 9.35489 12.8067 10.5C12.9515 11.35 13.0229 12.211 13.02 13.0733L14.0734 12.3333C14.044 11.6629 13.9728 10.9949 13.86 10.3333C13.6812 9.2521 13.3953 8.19134 13.0067 7.16665H13.5267L14.1334 5.83331H9.30669L8.07336 3.16665H16.88L15.2134 6.81331C15.4991 6.96634 15.7731 7.14014 16.0334 7.33331C17.6668 8.46025 19.0064 9.96218 19.94 11.7133C20.8751 13.6334 21.4556 15.7068 21.6534 17.8333H22.9934Z" fill="#201F21"/>
</svg>
