<svg width="24" height="25" viewBox="0 0 24 25" fill="none" xmlns="http://www.w3.org/2000/svg">
<path d="M20.8333 5.43333C19.3226 5.03014 17.8468 4.50623 16.42 3.86667C15.0163 3.25774 13.6612 2.54232 12.3667 1.72667L12 1.5L11.64 1.73333C10.3454 2.54899 8.99038 3.26441 7.58667 3.87333C6.15753 4.51096 4.67944 5.03264 3.16667 5.43333L2.66667 5.56V11.12C2.66667 20.0467 11.6867 23.3867 11.7733 23.42L12 23.5L12.2267 23.42C12.32 23.42 21.3333 20.0533 21.3333 11.12V5.56L20.8333 5.43333ZM20 11.12C20 18.4533 13.3333 21.5267 12 22.0733C10.6667 21.5267 4 18.4467 4 11.12V6.59333C5.40632 6.18904 6.78295 5.68784 8.12 5.09333C9.45715 4.51533 10.7535 3.84712 12 3.09333C13.2465 3.84712 14.5429 4.51533 15.88 5.09333C17.2171 5.68784 18.5937 6.18904 20 6.59333V11.12Z" fill="#F7F4EF"/>
<path d="M7.25334 11.7466C7.1258 11.6374 6.96175 11.5804 6.79397 11.5868C6.62618 11.5933 6.46702 11.6629 6.34829 11.7816C6.22956 11.9003 6.16001 12.0595 6.15353 12.2273C6.14705 12.3951 6.20412 12.5591 6.31334 12.6866L10.3133 16.6866L17.6 9.67998C17.7273 9.55621 17.8002 9.38694 17.8027 9.20941C17.8052 9.03187 17.7371 8.86062 17.6133 8.73331C17.4896 8.60601 17.3203 8.53308 17.1428 8.53058C16.9652 8.52808 16.794 8.59621 16.6667 8.71998L10.3533 14.8466L7.25334 11.7466Z" fill="#F7F4EF"/>
</svg>
