<svg width="25" height="25" viewBox="0 0 25 25" fill="none" xmlns="http://www.w3.org/2000/svg">
<path d="M12.4999 1.83333C11.542 1.83599 10.589 1.9683 9.66658 2.22667L10.1799 3.46667C12.1737 2.93876 14.2859 3.0827 16.1896 3.87621C18.0933 4.66972 19.6824 6.06856 20.711 7.85624C21.7396 9.64393 22.1504 11.7208 21.8796 13.7654C21.6089 15.8101 20.6718 17.7085 19.2134 19.1669C17.7551 20.6253 15.8566 21.5623 13.812 21.833C11.7674 22.1038 9.69051 21.6931 7.90282 20.6645C6.11514 19.6359 4.7163 18.0467 3.92279 16.143C3.12929 14.2393 2.98535 12.1271 3.51325 10.1333L2.27325 9.61333C1.66812 11.766 1.75481 14.0544 2.52106 16.1551C3.28731 18.2558 4.69437 20.0626 6.54338 21.3201C8.39238 22.5776 10.5898 23.2222 12.8251 23.1628C15.0604 23.1035 17.2206 22.3431 19.0002 20.9892C20.7798 19.6353 22.089 17.7564 22.7427 15.618C23.3963 13.4796 23.3614 11.1898 22.6429 9.0723C21.9243 6.9548 20.5585 5.11666 18.7384 3.81767C16.9183 2.51868 14.736 1.82453 12.4999 1.83333Z" fill="#201F21"/>
<path d="M5.46668 10.9667C5.13394 12.487 5.30234 14.0743 5.94668 15.491C6.59103 16.9077 7.67671 18.0778 9.04133 18.8262C10.4059 19.5746 11.9762 19.8611 13.5172 19.6429C15.0582 19.4246 16.4871 18.7134 17.5903 17.6156C18.6935 16.5177 19.4116 15.0922 19.6372 13.5523C19.8629 12.0124 19.584 10.4408 18.8422 9.07256C18.1004 7.70434 16.9356 6.61303 15.522 5.96185C14.1084 5.31066 12.522 5.1346 11 5.45999L11.4133 6.49999C12.7082 6.25755 14.0468 6.43664 15.2324 7.01095C16.418 7.58526 17.3883 8.52455 18.0007 9.69091C18.6132 10.8573 18.8356 12.1893 18.6353 13.4914C18.435 14.7934 17.8226 15.997 16.8879 16.9254C15.9532 17.8537 14.7455 18.458 13.442 18.6494C12.1386 18.8408 10.8082 18.6094 9.64602 17.989C8.48385 17.3686 7.55119 16.3919 6.98496 15.2024C6.41874 14.0129 6.24877 12.6732 6.50001 11.38L5.46668 10.9667Z" fill="#201F21"/>
<path d="M12.4999 15.2267C11.8317 15.2168 11.1904 14.9612 10.6986 14.5087C10.2067 14.0562 9.8987 13.4385 9.83325 12.7734L8.74658 12.32V12.5C8.74662 13.252 8.97015 13.9869 9.38876 14.6116C9.80737 15.2362 10.4022 15.7224 11.0977 16.0083C11.7931 16.2942 12.5579 16.3669 13.2948 16.2173C14.0317 16.0676 14.7075 15.7024 15.2364 15.1679C15.7653 14.6333 16.1234 13.9537 16.2652 13.2152C16.407 12.4768 16.3261 11.7129 16.0329 11.0204C15.7396 10.328 15.2472 9.73842 14.6182 9.32645C13.9891 8.91448 13.2518 8.69876 12.4999 8.70669H12.3399L12.7866 9.83336C13.4529 9.93441 14.0578 10.2798 14.4834 10.8023C14.9091 11.3248 15.125 11.987 15.0893 12.66C15.0535 13.333 14.7686 13.9686 14.2899 14.4431C13.8113 14.9175 13.1732 15.1968 12.4999 15.2267Z" fill="#201F21"/>
<path d="M5.9667 9.39336C6.02825 9.45617 6.11212 9.49211 6.20004 9.49336H8.63337L12.2134 13.0734C12.3389 13.1998 12.5095 13.2712 12.6877 13.2718C12.8658 13.2724 13.037 13.2022 13.1634 13.0767C13.2898 12.9512 13.3612 12.7805 13.3618 12.6024C13.3624 12.4242 13.2922 12.2531 13.1667 12.1267L9.52004 8.50003V6.17336C9.51879 6.08544 9.48284 6.00157 9.42004 5.94003L5.69337 2.21336C5.64678 2.16768 5.58781 2.13668 5.52376 2.1242C5.45972 2.11172 5.39342 2.11831 5.33309 2.14315C5.27275 2.16799 5.22104 2.21 5.18435 2.26395C5.14767 2.31791 5.12762 2.38145 5.1267 2.44669V5.11336H2.50004C2.4348 5.11428 2.37126 5.13432 2.3173 5.17101C2.26334 5.20769 2.22134 5.25941 2.19649 5.31974C2.17165 5.38008 2.16506 5.44638 2.17754 5.51042C2.19002 5.57446 2.22102 5.63344 2.2667 5.68003L5.9667 9.39336Z" fill="#201F21"/>
</svg>
