<svg width="14" height="17" viewBox="0 0 14 17" fill="none" xmlns="http://www.w3.org/2000/svg">
<path d="M9.16111 0.998047H1.35C1.07493 1.00533 0.813843 1.12087 0.623477 1.31955C0.433111 1.51824 0.328843 1.78403 0.33333 2.05916V15.4925C0.328843 15.7676 0.433111 16.0334 0.623477 16.2321C0.813843 16.4308 1.07493 16.5463 1.35 16.5536H12.65C12.9251 16.5463 13.1861 16.4308 13.3765 16.2321C13.5669 16.0334 13.6711 15.7676 13.6667 15.4925V5.39805L9.16111 0.998047ZM8.99444 2.38138L12.3278 5.65916H8.99444V2.38138ZM1.44444 15.4425V2.10916H8.11111V6.5536H12.5556V15.4425H1.44444Z" fill="#92B231"/>
</svg>
