<svg xmlns="http://www.w3.org/2000/svg" width="17" height="13" fill="none"><rect id="backgroundrect" width="100%" height="100%" x="0" y="0" fill="none" stroke="none"/>


<g class="currentLayer" style=""><title>Layer 1</title><path d="M16.044479985809325,0.005557466659546151 C15.972479985809326,-0.0018525333404539879 15.899979985809328,-0.0018525333404539879 15.828079985809325,0.005557466659546151 H1.050289985809326 C0.9555699858093263,0.007017466659545946 0.8614899858093263,0.021217466659545714 0.7705599858093262,0.047777466659546075 L8.396949985809327,7.642497466659545 L16.044479985809325,0.005557466659546151 z" fill="#005D4A" id="svg_1" class=""/><path d="M16.825579985809327,0.7391774666595459 L9.141079985809327,8.391997466659546 C8.943329985809326,8.588597466659547 8.675799985809327,8.698897466659545 8.396939985809325,8.698897466659545 C8.118079985809326,8.698897466659545 7.850539985809327,8.588597466659547 7.652769985809327,8.391997466659546 L0.036939985809326226,0.7972374666595461 C0.013529985809326295,0.8832874666595458 0.0011099858093261972,0.9719574666595463 -1.4190673747194182e-8,1.0611274666595456 V11.616697466659545 C-1.4190673747194182e-8,11.896597466659546 0.11120998580932628,12.165097466659546 0.30915998580932635,12.363097466659546 C0.5071199858093263,12.560997466659545 0.7755999858093263,12.672197466659545 1.0555499858093262,12.672197466659545 H15.833279985809327 C16.113279985809328,12.672197466659545 16.381779985809327,12.560997466659545 16.579679985809328,12.363097466659546 C16.777679985809325,12.165097466659546 16.888879985809325,11.896597466659546 16.888879985809325,11.616697466659545 V1.0611274666595456 C16.884679985809328,0.9511674666595455 16.863279985809328,0.8425374666595458 16.825579985809327,0.7391774666595459 zM1.778609985809326,11.616697466659545 H1.0449999858093264 V10.861997466659545 L4.881939985809326,7.056697466659546 L5.626109985809326,7.800897466659546 L1.778609985809326,11.616697466659545 zM15.822779985809326,11.616697466659545 H15.083879985809325 L11.236379985809327,7.800897466659546 L11.980579985809326,7.056697466659546 L15.817479985809328,10.861997466659545 L15.822779985809326,11.616697466659545 z" fill="#005D4A" id="svg_2" class=""/></g></svg>