<svg width="17" height="17" viewBox="0 0 17 17" fill="none" xmlns="http://www.w3.org/2000/svg">
<path d="M8.33334 1.52588e-05C6.68516 1.52588e-05 5.074 0.488757 3.70359 1.40443C2.33318 2.32011 1.26507 3.6216 0.634341 5.14432C0.00361072 6.66704 -0.161417 8.34259 0.160126 9.9591C0.48167 11.5756 1.27534 13.0605 2.44078 14.2259C3.60622 15.3913 5.09108 16.185 6.70758 16.5066C8.32409 16.8281 9.99965 16.6631 11.5224 16.0323C13.0451 15.4016 14.3466 14.3335 15.2622 12.9631C16.1779 11.5927 16.6667 9.98152 16.6667 8.33335C16.6667 6.12321 15.7887 4.00359 14.2259 2.44079C12.6631 0.877989 10.5435 1.52588e-05 8.33334 1.52588e-05ZM7.29861 4.16668C7.29861 3.89041 7.40836 3.62546 7.60371 3.43011C7.79906 3.23476 8.06401 3.12501 8.34028 3.12501C8.61655 3.12501 8.8815 3.23476 9.07685 3.43011C9.2722 3.62546 9.38195 3.89041 9.38195 4.16668V8.9514C9.38195 9.0882 9.355 9.22365 9.30266 9.35003C9.25031 9.47641 9.17358 9.59124 9.07685 9.68797C8.98012 9.7847 8.86529 9.86143 8.73891 9.91378C8.61253 9.96613 8.47708 9.99307 8.34028 9.99307C8.20349 9.99307 8.06803 9.96613 7.94165 9.91378C7.81527 9.86143 7.70044 9.7847 7.60371 9.68797C7.50698 9.59124 7.43025 9.47641 7.37791 9.35003C7.32556 9.22365 7.29861 9.0882 7.29861 8.9514V4.16668ZM8.33334 13.5417C8.0971 13.5417 7.86616 13.4716 7.66974 13.3404C7.47331 13.2091 7.32022 13.0226 7.22981 12.8043C7.13941 12.5861 7.11576 12.3459 7.16184 12.1142C7.20793 11.8825 7.32169 11.6697 7.48874 11.5026C7.65578 11.3356 7.86861 11.2218 8.10031 11.1757C8.33201 11.1297 8.57217 11.1533 8.79043 11.2437C9.00869 11.3341 9.19523 11.4872 9.32648 11.6836C9.45773 11.8801 9.52778 12.111 9.52778 12.3472C9.52778 12.664 9.40194 12.9678 9.17794 13.1918C8.95393 13.4158 8.65012 13.5417 8.33334 13.5417Z" fill="#FF0000"/>
</svg>
