<svg width="24" height="24" viewBox="0 0 24 24" fill="none" xmlns="http://www.w3.org/2000/svg">
<path opacity="0.2" d="M18.75 9C18.75 10.335 18.3541 11.6401 17.6124 12.7501C16.8707 13.8601 15.8165 14.7253 14.5831 15.2362C13.3497 15.7471 11.9925 15.8808 10.6831 15.6203C9.37377 15.3599 8.17104 14.717 7.22703 13.773C6.28303 12.829 5.64015 11.6262 5.3797 10.3169C5.11925 9.00749 5.25292 7.65029 5.76382 6.41689C6.27471 5.18349 7.13987 4.12928 8.2499 3.38758C9.35994 2.64588 10.665 2.25 12 2.25C13.7902 2.25 15.5071 2.96116 16.773 4.22703C18.0388 5.4929 18.75 7.20979 18.75 9V9Z" fill="white"/>
<path d="M19.5 8.99997C19.5 7.54859 19.0788 6.1284 18.2877 4.91162C17.4965 3.69485 16.3692 2.73379 15.0427 2.14498C13.7161 1.55617 12.2472 1.36492 10.814 1.59443C9.38092 1.82393 8.04518 2.46433 6.96881 3.43795C5.89245 4.41157 5.1217 5.67659 4.75005 7.07958C4.37841 8.48257 4.42182 9.96325 4.87504 11.3421C5.32825 12.7209 6.1718 13.9385 7.30336 14.8474C8.43493 15.7563 9.8059 16.3173 11.25 16.4625V18.75H8.25C8.05109 18.75 7.86032 18.829 7.71967 18.9696C7.57902 19.1103 7.5 19.3011 7.5 19.5C7.5 19.6989 7.57902 19.8896 7.71967 20.0303C7.86032 20.171 8.05109 20.25 8.25 20.25H11.25V22.5C11.25 22.6989 11.329 22.8896 11.4697 23.0303C11.6103 23.171 11.8011 23.25 12 23.25C12.1989 23.25 12.3897 23.171 12.5303 23.0303C12.671 22.8896 12.75 22.6989 12.75 22.5V20.25H15.75C15.9489 20.25 16.1397 20.171 16.2803 20.0303C16.421 19.8896 16.5 19.6989 16.5 19.5C16.5 19.3011 16.421 19.1103 16.2803 18.9696C16.1397 18.829 15.9489 18.75 15.75 18.75H12.75V16.4625C14.5992 16.2745 16.3129 15.4074 17.5598 14.029C18.8066 12.6505 19.4979 10.8587 19.5 8.99997V8.99997ZM6 8.99997C6 7.81328 6.35189 6.65324 7.01118 5.66655C7.67047 4.67985 8.60754 3.91082 9.7039 3.45669C10.8003 3.00257 12.0067 2.88375 13.1705 3.11526C14.3344 3.34677 15.4035 3.91822 16.2426 4.75733C17.0818 5.59645 17.6532 6.66554 17.8847 7.82943C18.1162 8.99332 17.9974 10.1997 17.5433 11.2961C17.0892 12.3924 16.3201 13.3295 15.3334 13.9888C14.3467 14.6481 13.1867 15 12 15C10.4095 14.9975 8.88478 14.3646 7.7601 13.2399C6.63542 12.1152 6.00248 10.5905 6 8.99997V8.99997Z" fill="white"/>
</svg>
