<svg width="19" height="19" viewBox="0 0 19 19" fill="none" xmlns="http://www.w3.org/2000/svg">
<path d="M15.4375 8.60938H14.1758V4.45312C14.1758 3.14131 13.1126 2.07812 11.8008 2.07812H7.19922C5.8874 2.07812 4.82422 3.14131 4.82422 4.45312V8.60938H3.5625C3.23408 8.60938 2.96875 8.87471 2.96875 9.20312V16.3281C2.96875 16.6565 3.23408 16.9219 3.5625 16.9219H15.4375C15.7659 16.9219 16.0312 16.6565 16.0312 16.3281V9.20312C16.0312 8.87471 15.7659 8.60938 15.4375 8.60938ZM6.16016 4.45312C6.16016 3.87979 6.62588 3.41406 7.19922 3.41406H11.8008C12.3741 3.41406 12.8398 3.87979 12.8398 4.45312V8.60938H6.16016V4.45312ZM14.6953 15.5859H4.30469V9.94531H14.6953V15.5859Z" fill="#3E3E3E"/>
<path d="M4.30469 15.5859H14.6953V9.94531H4.30469V15.5859ZM9.5 11.3926C9.6885 11.3926 9.87213 11.4525 10.0245 11.5635C10.1768 11.6745 10.29 11.831 10.3477 12.0105C10.4055 12.1899 10.4048 12.383 10.3458 12.5621C10.2869 12.7411 10.1726 12.8968 10.0195 13.0068V13.9902C10.0195 14.0719 9.95273 14.1387 9.87109 14.1387H9.12891C9.04727 14.1387 8.98047 14.0719 8.98047 13.9902V13.0068C8.82738 12.8968 8.71313 12.7411 8.65415 12.5621C8.59518 12.383 8.59452 12.1899 8.65227 12.0105C8.71002 11.831 8.8232 11.6745 8.97554 11.5635C9.12787 11.4525 9.3115 11.3926 9.5 11.3926Z" fill="#3E3E3E" fill-opacity="0.15"/>
<path d="M8.98065 13.0068V13.9902C8.98065 14.0719 9.04745 14.1387 9.12909 14.1387H9.87128C9.95292 14.1387 10.0197 14.0719 10.0197 13.9902V13.0068C10.1729 12.8969 10.2872 12.7411 10.3462 12.5621C10.4052 12.383 10.4059 12.1898 10.3482 12.0103C10.2904 11.8308 10.1772 11.6743 10.0248 11.5633C9.87242 11.4522 9.68874 11.3924 9.50019 11.3924C9.31164 11.3924 9.12795 11.4522 8.97556 11.5633C8.82318 11.6743 8.70996 11.8308 8.6522 12.0103C8.59444 12.1898 8.59512 12.383 8.65415 12.5621C8.71317 12.7411 8.82749 12.8969 8.98065 13.0068Z" fill="#3E3E3E"/>
</svg>
