<svg width="165" height="48" viewBox="0 0 165 48" fill="none" xmlns="http://www.w3.org/2000/svg">
<path d="M40.3565 32.6576C40.1161 32.7285 39.8376 32.7938 39.5239 32.8591C39.2102 32.9244 38.8818 32.9783 38.5388 33.0266C38.1958 33.072 37.844 33.1117 37.4892 33.1401C37.1345 33.1685 36.7914 33.1827 36.466 33.1827C35.6832 33.1827 34.9825 33.072 34.3668 32.8506C33.7511 32.6292 33.2322 32.3113 32.81 31.8968C32.3878 31.4824 32.0653 30.98 31.8425 30.3895C31.6197 29.7991 31.5083 29.1377 31.5083 28.4026C31.5083 27.656 31.6051 26.9804 31.7986 26.3815C31.9921 25.7797 32.2676 25.2688 32.6312 24.8487C32.9947 24.4286 33.4374 24.1078 33.9593 23.8864C34.4841 23.665 35.0822 23.5543 35.7594 23.5543C36.1318 23.5543 36.4689 23.5884 36.7621 23.6593C37.0582 23.7303 37.3573 23.8296 37.6563 23.9574V19.7875L40.3507 19.3674V32.6576H40.3565ZM34.2613 28.2805C34.2613 29.0866 34.4489 29.7338 34.8213 30.2249C35.1936 30.716 35.7506 30.9601 36.4865 30.9601C36.7269 30.9601 36.9498 30.9516 37.155 30.9346C37.3602 30.9175 37.5273 30.8976 37.6622 30.8721V26.126C37.4921 26.021 37.2723 25.933 37.0025 25.8649C36.7299 25.7939 36.4572 25.7599 36.1787 25.7599C34.9004 25.7599 34.2613 26.6001 34.2613 28.2805Z" fill="#FFFDFD"/>
<path d="M46.3052 23.5005C47.0997 23.5005 47.7652 23.5885 48.2959 23.7645C48.8266 23.9405 49.2517 24.1903 49.5712 24.5167C49.8908 24.8431 50.1166 25.2405 50.2485 25.7089C50.3804 26.1772 50.4479 26.6967 50.4479 27.2673V32.6946C50.0609 32.7769 49.5243 32.8734 48.8383 32.9841C48.1522 33.0948 47.3196 33.1516 46.3433 33.1516C45.7276 33.1516 45.1706 33.0977 44.6692 32.9926C44.1679 32.8876 43.7369 32.7144 43.3763 32.476C43.0157 32.2376 42.7372 31.9253 42.5437 31.5393C42.3502 31.1532 42.2534 30.682 42.2534 30.12C42.2534 29.5835 42.3648 29.1265 42.5876 28.7547C42.8105 28.38 43.1095 28.0848 43.4819 27.8605C43.8542 27.6391 44.2822 27.4773 44.766 27.378C45.2468 27.2786 45.7481 27.2304 46.2671 27.2304C46.616 27.2304 46.9267 27.2445 47.1994 27.2729C47.4721 27.3013 47.6919 27.3411 47.8591 27.3865V27.1424C47.8591 26.6995 47.7213 26.3419 47.4427 26.0751C47.1642 25.8054 46.6834 25.672 45.9944 25.672C45.5371 25.672 45.0826 25.7032 44.637 25.7685C44.1914 25.8338 43.8044 25.9246 43.4789 26.041L43.1359 23.9405C43.2913 23.895 43.4877 23.844 43.7223 23.7929C43.9568 23.7389 44.2148 23.6935 44.4904 23.6538C44.7689 23.614 45.0592 23.5771 45.367 23.5487C45.6807 23.5147 45.9915 23.5005 46.3052 23.5005ZM46.5221 31.1334C46.786 31.1334 47.0411 31.1277 47.2815 31.1163C47.5219 31.105 47.7154 31.088 47.8591 31.0624V29.0839C47.7506 29.0612 47.5864 29.0385 47.3694 29.013C47.1525 28.9903 46.9531 28.9789 46.7714 28.9789C46.5192 28.9789 46.2788 28.9931 46.056 29.0215C45.8332 29.0499 45.6367 29.1066 45.4696 29.189C45.2996 29.2713 45.1676 29.382 45.0709 29.5211C44.9741 29.6602 44.9272 29.8361 44.9272 30.0462C44.9272 30.455 45.068 30.7388 45.3524 30.8949C45.6397 31.0567 46.0296 31.1334 46.5221 31.1334Z" fill="#FFFDFD"/>
<path d="M52.7992 21.4509L55.4935 21.0308V23.7444H58.7303V25.9159H55.4935V29.1547C55.4935 29.7026 55.5932 30.1425 55.7926 30.469C55.992 30.7954 56.3936 30.96 56.9946 30.96C57.2849 30.96 57.581 30.9345 57.8888 30.8806C58.1967 30.8295 58.4752 30.7557 58.7303 30.662L59.1114 32.6944C58.786 32.8221 58.4254 32.9328 58.0266 33.0265C57.6279 33.1202 57.1412 33.1656 56.5607 33.1656C55.8248 33.1656 55.215 33.0691 54.7342 32.8761C54.2504 32.683 53.8664 32.4162 53.5761 32.0699C53.2859 31.7264 53.0836 31.3092 52.9692 30.8181C52.8549 30.327 52.7963 29.7849 52.7963 29.1888L52.7992 21.4509Z" fill="#FFFDFD"/>
<path d="M63.9753 23.5005C64.7698 23.5005 65.4353 23.5885 65.966 23.7645C66.4967 23.9405 66.9218 24.1903 67.2414 24.5167C67.5609 24.8431 67.7867 25.2405 67.9186 25.7089C68.0505 26.1772 68.118 26.6967 68.118 27.2673V32.6946C67.731 32.7769 67.1944 32.8734 66.5084 32.9841C65.8224 33.0948 64.9897 33.1516 64.0134 33.1516C63.3977 33.1516 62.8407 33.0977 62.3393 32.9926C61.838 32.8876 61.407 32.7144 61.0464 32.476C60.6858 32.2376 60.4073 31.9253 60.2138 31.5393C60.0203 31.1532 59.9235 30.682 59.9235 30.12C59.9235 29.5835 60.0349 29.1265 60.2578 28.7547C60.4806 28.38 60.7796 28.0848 61.152 27.8605C61.5243 27.6391 61.9523 27.4773 62.4361 27.378C62.9169 27.2786 63.4183 27.2304 63.9372 27.2304C64.2861 27.2304 64.5968 27.2445 64.8695 27.2729C65.1422 27.3013 65.3621 27.3411 65.5292 27.3865V27.1424C65.5292 26.6995 65.3914 26.3419 65.1128 26.0751C64.8343 25.8054 64.3535 25.672 63.6645 25.672C63.2072 25.672 62.7527 25.7032 62.3071 25.7685C61.8615 25.8338 61.4745 25.9246 61.149 26.041L60.806 23.9405C60.9614 23.895 61.1578 23.844 61.3924 23.7929C61.6269 23.7389 61.8849 23.6935 62.1605 23.6538C62.439 23.614 62.7293 23.5771 63.0371 23.5487C63.3508 23.5147 63.6616 23.5005 63.9753 23.5005ZM64.1923 31.1334C64.4561 31.1334 64.7112 31.1277 64.9516 31.1163C65.192 31.105 65.3855 31.088 65.5292 31.0624V29.0839C65.4207 29.0612 65.2565 29.0385 65.0396 29.013C64.8226 28.9903 64.6232 28.9789 64.4415 28.9789C64.1893 28.9789 63.9489 28.9931 63.7261 29.0215C63.5033 29.0499 63.3068 29.1066 63.1397 29.189C62.9697 29.2713 62.8378 29.382 62.741 29.5211C62.6443 29.6602 62.5973 29.8361 62.5973 30.0462C62.5973 30.455 62.7381 30.7388 63.0225 30.8949C63.3098 31.0567 63.6997 31.1334 64.1923 31.1334Z" fill="#FFFDFD"/>
<path d="M74.2865 19.3674C74.7937 19.3674 75.2071 19.4043 75.5267 19.481C75.8462 19.5576 76.0544 19.6229 76.1511 19.6825L75.9166 20.6647C75.7847 20.605 75.5882 20.5454 75.3302 20.4801C75.0722 20.4149 74.7439 20.3836 74.3451 20.3836C73.5125 20.3836 72.9203 20.588 72.5626 20.9968C72.2078 21.4055 72.029 22.0584 72.029 22.9582V23.9034H75.7905V24.8657H72.029V32.9556H70.8533V22.9213C70.8533 21.7433 71.1348 20.8548 71.6948 20.2587C72.2518 19.6655 73.1167 19.3674 74.2865 19.3674Z" fill="#FFFDFD"/>
<path d="M80.4902 23.6904C81.1059 23.6904 81.6278 23.7756 82.0558 23.9431C82.4839 24.1134 82.8298 24.3461 83.0966 24.6442C83.3605 24.9422 83.554 25.2942 83.6742 25.703C83.7944 26.1117 83.856 26.5545 83.856 27.0342V32.7426C83.7358 32.7766 83.5599 32.8164 83.3312 32.8561C83.1025 32.8959 82.8357 32.9413 82.5366 32.9867C82.2347 33.0321 81.9004 33.0719 81.534 33.1002C81.1675 33.1286 80.7893 33.1428 80.4023 33.1428C79.9068 33.1428 79.4524 33.0889 79.0361 32.9839C78.6197 32.8788 78.2591 32.7114 77.9513 32.4843C77.6434 32.2572 77.403 31.9648 77.2271 31.61C77.0512 31.2552 76.9662 30.818 76.9662 30.3043C76.9662 29.8132 77.0629 29.3931 77.2564 29.0439C77.4499 28.6948 77.7197 28.4053 78.0715 28.1782C78.4204 27.9511 78.8367 27.7836 79.3204 27.6786C79.8013 27.5736 80.3261 27.5225 80.8948 27.5225C81.0649 27.5225 81.2408 27.531 81.4284 27.548C81.6161 27.5651 81.7949 27.5878 81.9708 27.619C82.1467 27.6474 82.2962 27.6786 82.4223 27.707C82.5484 27.7354 82.6363 27.7638 82.6832 27.7865V27.2273C82.6832 26.9122 82.6598 26.6056 82.6099 26.3076C82.563 26.0095 82.4575 25.7427 82.2933 25.5014C82.1291 25.263 81.9004 25.07 81.6073 24.9224C81.3111 24.7776 80.9241 24.7038 80.4404 24.7038C79.7543 24.7038 79.2413 24.752 78.9041 24.8429C78.567 24.9366 78.3178 25.0132 78.1624 25.07L77.9982 24.0708C78.2034 23.9771 78.5201 23.8891 78.9481 23.8096C79.3703 23.733 79.8863 23.6904 80.4902 23.6904ZM80.5987 32.1323C81.0561 32.1323 81.4577 32.1181 81.8008 32.0897C82.1438 32.0613 82.437 32.0216 82.6774 31.9762V28.7885C82.5454 28.7289 82.3344 28.6693 82.0441 28.604C81.7539 28.5387 81.3581 28.5075 80.8508 28.5075C80.5606 28.5075 80.2586 28.5273 79.9479 28.5699C79.6341 28.6096 79.3439 28.6976 79.08 28.8311C78.8132 28.9645 78.5963 29.149 78.4292 29.3817C78.2591 29.6145 78.177 29.9239 78.177 30.3099C78.177 30.6477 78.2327 30.9344 78.35 31.1672C78.4643 31.4 78.6285 31.5873 78.8396 31.7264C79.0507 31.8655 79.3029 31.9677 79.599 32.0329C79.8892 32.1011 80.2234 32.1323 80.5987 32.1323Z" fill="#FFFDFD"/>
<path d="M86.8552 24.2186C87.2041 24.1249 87.6761 24.0199 88.2654 23.9035C88.8547 23.7871 89.5789 23.7275 90.435 23.7275C91.1474 23.7275 91.7396 23.8269 92.2175 24.0256C92.6925 24.2243 93.0736 24.5081 93.358 24.8743C93.6424 25.2433 93.8447 25.6833 93.9649 26.1971C94.0851 26.7109 94.1467 27.2757 94.1467 27.8945V32.9557H92.971V28.2636C92.971 27.622 92.927 27.0799 92.8361 26.6342C92.7453 26.1914 92.5957 25.8281 92.3846 25.5471C92.1735 25.266 91.895 25.0645 91.552 24.9424C91.209 24.8204 90.778 24.7579 90.2591 24.7579C89.705 24.7579 89.2241 24.7863 88.8225 24.8459C88.4179 24.9055 88.157 24.9566 88.0367 25.0021V32.9528H86.8611V24.2186H86.8552Z" fill="#FFFDFD"/>
<path d="M99.9869 23.6904C100.603 23.6904 101.124 23.7756 101.552 23.9431C101.981 24.1134 102.326 24.3461 102.593 24.6442C102.86 24.9422 103.051 25.2942 103.171 25.703C103.291 26.1117 103.353 26.5545 103.353 27.0342V32.7426C103.232 32.7766 103.057 32.8164 102.828 32.8561C102.599 32.8959 102.332 32.9413 102.033 32.9867C101.731 33.0321 101.397 33.0719 101.031 33.1002C100.664 33.1286 100.286 33.1428 99.8989 33.1428C99.4034 33.1428 98.949 33.0889 98.5327 32.9839C98.1164 32.8788 97.7558 32.7114 97.4479 32.4843C97.1401 32.2572 96.8997 31.9648 96.7238 31.61C96.5479 31.2552 96.4628 30.818 96.4628 30.3043C96.4628 29.8132 96.5596 29.3931 96.7531 29.0439C96.9466 28.6948 97.2163 28.4053 97.5681 28.1782C97.917 27.9511 98.3333 27.7836 98.8171 27.6786C99.2979 27.5736 99.8227 27.5225 100.391 27.5225C100.562 27.5225 100.737 27.531 100.925 27.548C101.113 27.5651 101.292 27.5878 101.467 27.619C101.643 27.6474 101.793 27.6786 101.919 27.707C102.045 27.7354 102.133 27.7638 102.18 27.7865V27.2273C102.18 26.9122 102.156 26.6056 102.107 26.3076C102.057 26.0095 101.954 25.7427 101.79 25.5014C101.629 25.263 101.397 25.07 101.104 24.9224C100.808 24.7776 100.421 24.7038 99.937 24.7038C99.251 24.7038 98.7379 24.752 98.4008 24.8429C98.0636 24.9366 97.8144 25.0132 97.659 25.07L97.4948 24.0708C97.7001 23.9771 98.0167 23.8891 98.4447 23.8096C98.8669 23.733 99.3829 23.6904 99.9869 23.6904ZM100.095 32.1323C100.553 32.1323 100.954 32.1181 101.297 32.0897C101.64 32.0613 101.934 32.0216 102.174 31.9762V28.7885C102.042 28.7289 101.831 28.6693 101.541 28.604C101.25 28.5387 100.855 28.5075 100.347 28.5075C100.057 28.5075 99.7553 28.5273 99.4445 28.5699C99.1308 28.6096 98.8405 28.6976 98.5767 28.8311C98.3099 28.9645 98.0929 29.149 97.9258 29.3817C97.7558 29.6145 97.6737 29.9239 97.6737 30.3099C97.6737 30.6477 97.7294 30.9344 97.8467 31.1672C97.961 31.4 98.1252 31.5873 98.3363 31.7264C98.5474 31.8655 98.7995 31.9677 99.0956 32.0329C99.3859 32.1011 99.7201 32.1323 100.095 32.1323Z" fill="#FFFDFD"/>
<path d="M107.454 23.9034H111.181V24.8657H107.454V29.6798C107.454 30.1936 107.498 30.6109 107.589 30.9316C107.68 31.2524 107.809 31.4994 107.979 31.6753C108.149 31.8513 108.351 31.9677 108.595 32.0245C108.835 32.0841 109.102 32.1125 109.389 32.1125C109.885 32.1125 110.281 32.0557 110.582 31.945C110.884 31.8343 111.119 31.7321 111.289 31.6384L111.579 32.5837C111.409 32.6887 111.116 32.8079 110.694 32.9413C110.272 33.0748 109.814 33.1429 109.319 33.1429C108.741 33.1429 108.255 33.0691 107.862 32.9243C107.469 32.7795 107.155 32.5581 106.921 32.2601C106.686 31.962 106.519 31.593 106.422 31.1474C106.325 30.7046 106.279 30.1794 106.279 29.572V21.2408L107.454 21.0308V23.9034Z" fill="#FFFDFD"/>
<path d="M114.798 21.1699C114.798 21.4396 114.713 21.6525 114.546 21.8086C114.376 21.9676 114.171 22.0442 113.931 22.0442C113.69 22.0442 113.485 21.9647 113.315 21.8086C113.145 21.6525 113.063 21.4396 113.063 21.1699C113.063 20.9003 113.148 20.6874 113.315 20.5313C113.485 20.3723 113.687 20.2957 113.931 20.2957C114.171 20.2957 114.376 20.3751 114.546 20.5313C114.713 20.6874 114.798 20.9031 114.798 21.1699ZM114.526 32.9556H113.35V23.9035H114.526V32.9556Z" fill="#FFFDFD"/>
<path d="M121.509 33.1487C120.785 33.1487 120.146 33.038 119.592 32.8166C119.038 32.5952 118.578 32.2772 118.208 31.8628C117.842 31.4484 117.56 30.9516 117.367 30.3754C117.173 29.7963 117.076 29.1577 117.076 28.4594C117.076 27.7469 117.176 27.0997 117.375 26.515C117.575 25.9302 117.862 25.4278 118.234 25.0077C118.607 24.5876 119.061 24.264 119.592 24.0369C120.123 23.8098 120.721 23.6963 121.383 23.6963C121.89 23.6963 122.362 23.736 122.802 23.8183C123.242 23.9007 123.582 24.0057 123.825 24.1334L123.518 25.1127C123.277 24.9963 123.005 24.9027 122.703 24.8317C122.401 24.7607 121.996 24.7267 121.492 24.7267C120.454 24.7267 119.668 25.0503 119.132 25.6975C118.595 26.3447 118.325 27.2644 118.325 28.4565C118.325 28.993 118.387 29.4869 118.507 29.9354C118.627 30.3839 118.824 30.77 119.094 31.0907C119.366 31.4115 119.715 31.6641 120.143 31.8429C120.571 32.0246 121.093 32.1154 121.709 32.1154C122.216 32.1154 122.641 32.0587 122.984 31.948C123.327 31.8373 123.579 31.7408 123.735 31.6584L123.987 32.6406C123.77 32.757 123.43 32.8705 122.964 32.9812C122.5 33.0919 122.014 33.1487 121.509 33.1487Z" fill="#FFFDFD"/>
<path d="M127.874 32.1495C128.549 32.1495 129.106 32.0416 129.548 31.8259C129.988 31.6102 130.208 31.2468 130.208 30.7302C130.208 30.4861 130.17 30.276 130.091 30.1C130.012 29.9241 129.883 29.7679 129.701 29.626C129.519 29.4869 129.282 29.3507 128.986 29.2229C128.689 29.0952 128.326 28.9419 127.892 28.7688C127.543 28.6297 127.212 28.4849 126.898 28.3401C126.584 28.1954 126.306 28.0251 126.065 27.832C125.825 27.639 125.632 27.4091 125.488 27.1394C125.344 26.8698 125.271 26.5433 125.271 26.1573C125.271 25.4221 125.558 24.826 126.13 24.3718C126.702 23.9177 127.49 23.6877 128.49 23.6877C129.129 23.6877 129.657 23.7417 130.073 23.8467C130.49 23.9517 130.783 24.0454 130.95 24.1277L130.677 25.1439C130.534 25.073 130.287 24.9793 129.944 24.8629C129.601 24.7465 129.097 24.6869 128.434 24.6869C128.168 24.6869 127.918 24.7125 127.684 24.7664C127.449 24.8203 127.241 24.8998 127.059 25.0134C126.878 25.1241 126.734 25.266 126.625 25.4335C126.517 25.6009 126.464 25.811 126.464 26.0551C126.464 26.3021 126.511 26.5121 126.608 26.6881C126.705 26.8641 126.845 27.0202 127.033 27.1536C127.221 27.287 127.449 27.4148 127.719 27.5312C127.989 27.6475 128.299 27.7753 128.651 27.9144C129.012 28.0534 129.361 28.1954 129.692 28.3401C130.023 28.4849 130.317 28.6609 130.569 28.8653C130.821 29.0696 131.026 29.3138 131.184 29.6005C131.34 29.8872 131.419 30.2448 131.419 30.6763C131.419 31.4938 131.102 32.1126 130.469 32.5327C129.836 32.9528 128.971 33.1628 127.874 33.1628C127.053 33.1628 126.426 33.0947 125.992 32.9613C125.558 32.8279 125.268 32.7257 125.124 32.6547L125.432 31.6215C125.467 31.6442 125.547 31.684 125.667 31.7351C125.787 31.7861 125.951 31.8458 126.156 31.911C126.362 31.9763 126.605 32.0303 126.889 32.0785C127.174 32.1268 127.502 32.1495 127.874 32.1495Z" fill="#FFFDFD"/>
<path d="M135.362 32.2034C135.362 32.4731 135.274 32.7001 135.101 32.8875C134.925 33.0748 134.682 33.1685 134.368 33.1685C134.055 33.1685 133.811 33.0748 133.635 32.8875C133.459 32.7001 133.374 32.4731 133.374 32.2034C133.374 31.9337 133.462 31.7066 133.635 31.5193C133.811 31.332 134.055 31.2383 134.368 31.2383C134.682 31.2383 134.925 31.332 135.101 31.5193C135.274 31.7066 135.362 31.9337 135.362 32.2034Z" fill="#FFFDFD"/>
<path d="M138.147 24.2186C138.496 24.1249 138.968 24.0199 139.558 23.9035C140.147 23.7871 140.871 23.7275 141.727 23.7275C142.44 23.7275 143.032 23.8269 143.51 24.0256C143.985 24.2243 144.366 24.5081 144.65 24.8743C144.935 25.2433 145.137 25.6833 145.257 26.1971C145.377 26.7109 145.439 27.2757 145.439 27.8945V32.9557H144.263V28.2636C144.263 27.622 144.219 27.0799 144.128 26.6342C144.037 26.1914 143.888 25.8281 143.677 25.5471C143.466 25.266 143.187 25.0645 142.844 24.9424C142.501 24.8204 142.07 24.7579 141.551 24.7579C140.997 24.7579 140.516 24.7863 140.115 24.8459C139.71 24.9055 139.449 24.9566 139.329 25.0021V32.9528H138.153V24.2186H138.147Z" fill="#FFFDFD"/>
<path d="M150.807 33.1146C150.408 33.1032 150.062 33.0521 149.766 32.967C149.47 32.879 149.224 32.7455 149.024 32.5639C148.825 32.3822 148.676 32.1495 148.573 31.8628C148.47 31.5761 148.421 31.2184 148.421 30.7869V19.5775L149.596 19.3674V30.75C149.596 31.0311 149.623 31.2553 149.678 31.4256C149.734 31.5959 149.813 31.7293 149.922 31.8287C150.03 31.928 150.171 32.0018 150.347 32.0473C150.523 32.0955 150.731 32.1353 150.971 32.1693L150.807 33.1146Z" fill="#FFFDFD"/>
<path d="M156.322 30.9857C156.322 31.3122 156.266 31.6017 156.158 31.8543C156.049 32.1069 155.903 32.3227 155.721 32.4987C155.539 32.6747 155.328 32.8081 155.087 32.9017C154.847 32.9954 154.595 33.0408 154.334 33.0408C154.073 33.0408 153.821 32.9954 153.581 32.9017C153.34 32.8081 153.129 32.6747 152.947 32.4987C152.765 32.3227 152.619 32.1069 152.51 31.8543C152.402 31.6017 152.346 31.3122 152.346 30.9857C152.346 30.665 152.402 30.3754 152.51 30.12C152.619 29.8645 152.765 29.6488 152.947 29.4756C153.129 29.3025 153.34 29.169 153.581 29.0754C153.821 28.9817 154.073 28.9363 154.334 28.9363C154.595 28.9363 154.847 28.9817 155.087 29.0754C155.328 29.169 155.539 29.3025 155.721 29.4756C155.903 29.6488 156.049 29.8645 156.158 30.12C156.266 30.3754 156.322 30.665 156.322 30.9857ZM155.976 30.9857C155.976 30.7246 155.935 30.4861 155.853 30.2704C155.771 30.0547 155.656 29.8702 155.513 29.7169C155.369 29.5636 155.196 29.4444 154.994 29.3621C154.791 29.2797 154.571 29.2372 154.334 29.2372C154.097 29.2372 153.877 29.2797 153.674 29.3621C153.472 29.4444 153.299 29.5636 153.155 29.7169C153.012 29.8702 152.897 30.0547 152.815 30.2704C152.733 30.4861 152.692 30.7246 152.692 30.9857C152.692 31.2469 152.733 31.4853 152.815 31.701C152.897 31.9168 153.012 32.1013 153.155 32.2545C153.299 32.4078 153.472 32.5271 153.674 32.6122C153.877 32.6974 154.097 32.7399 154.334 32.7399C154.571 32.7399 154.791 32.6974 154.994 32.6122C155.196 32.5271 155.369 32.4078 155.513 32.2545C155.656 32.1013 155.771 31.9168 155.853 31.701C155.935 31.4853 155.976 31.2469 155.976 30.9857ZM154.967 32.1098C154.865 31.931 154.759 31.7635 154.651 31.6017C154.542 31.4399 154.445 31.3122 154.363 31.2185C154.337 31.2213 154.311 31.2242 154.287 31.2242C154.264 31.2242 154.243 31.2242 154.223 31.2242H153.853V32.1098H153.531V29.9127C153.622 29.8929 153.721 29.8787 153.833 29.8673C153.944 29.856 154.05 29.8503 154.146 29.8503C154.478 29.8503 154.733 29.9099 154.906 30.0263C155.079 30.1427 155.167 30.3215 155.167 30.5599C155.167 30.6962 155.129 30.8182 155.049 30.9261C154.97 31.034 154.856 31.1135 154.703 31.1674C154.736 31.2014 154.777 31.2525 154.829 31.3235C154.882 31.3945 154.938 31.4711 154.997 31.5591C155.055 31.6471 155.114 31.7379 155.173 31.8373C155.231 31.9366 155.281 32.0275 155.325 32.1098H154.967ZM153.853 30.9687H154.146C154.243 30.9687 154.334 30.963 154.416 30.9517C154.498 30.9403 154.569 30.9176 154.63 30.8864C154.692 30.8551 154.739 30.8126 154.771 30.7586C154.803 30.7047 154.821 30.6366 154.821 30.5543C154.821 30.4748 154.803 30.4067 154.765 30.3527C154.727 30.2988 154.68 30.2534 154.618 30.2193C154.557 30.1852 154.489 30.1597 154.41 30.1455C154.331 30.1313 154.249 30.1228 154.164 30.1228C154.105 30.1228 154.05 30.1228 153.997 30.1256C153.944 30.1285 153.897 30.1313 153.853 30.1342V30.9687Z" fill="#FFFDFD"/>
<path d="M29.5587 17.0456V12.6401C28.21 12.643 26.9787 12.8786 25.8909 13.3129C25.8851 13.3157 25.8763 13.3186 25.8704 13.3214V26.2482V26.251C26.3043 24.7806 27.5533 23.8354 29.242 23.8297V19.6003C28.0282 19.6031 26.9142 19.8103 25.9173 20.1793C26.1783 18.3031 27.5767 17.0513 29.5587 17.0456Z" fill="#FFFDFD"/>
<path d="M20.9655 21.011C20.0566 19.7847 18.4295 18.9956 16.3831 18.9956C12.9704 18.9956 8.67822 21.4197 8.67822 27.1792C8.67822 31.8997 12.255 35.3599 17.3242 35.3599C17.9047 35.3599 18.4617 35.3145 18.9982 35.2293V30.6081C18.5086 30.8324 17.9457 30.9573 17.3242 30.9573C15.1136 30.9573 13.6183 29.4159 13.6183 27.182C13.6183 24.9481 15.1136 23.4067 17.3242 23.4067C19.2357 23.4067 20.6489 24.6472 20.9919 26.4128V21.0564L20.9655 21.011Z" fill="#FFFDFD"/>
<path d="M22.7568 15.5923C21.7307 16.8668 21.0886 18.516 20.9919 20.4547V20.4576V21.0565V26.4129V26.7592V34.7185V34.7213C21.6955 34.4403 22.3376 34.077 22.9064 33.6342C23.783 32.9557 24.5218 32.0105 25.0437 30.9517C25.5655 29.8901 25.8704 28.7149 25.8704 27.5738V26.2511V26.2482V13.3214V13.3186C24.6185 13.821 23.5602 14.5931 22.7568 15.5923Z" fill="#FFFDFD"/>
</svg>
