<svg width="72" height="71" viewBox="0 0 72 71" fill="none" xmlns="http://www.w3.org/2000/svg">
<g clip-path="url(#clip0_21_1026)">
<path fill-rule="evenodd" clip-rule="evenodd" d="M32.1977 70.6166V69.1124H41.5922V70.6166H32.1977ZM25.1265 62.3616C25.1265 61.5794 24.6049 61.1334 23.6711 61.1334H22.7371V63.5985H23.6963C24.6133 63.5985 25.1265 63.1524 25.1265 62.3616ZM25.9003 62.3616C25.9003 63.5646 25.1433 64.2462 23.8137 64.2462H22.7371V66.038H21.9714V60.4856H23.7213C25.1094 60.4856 25.9003 61.1586 25.9003 62.3616ZM28.5325 63.3038C29.3149 63.3038 29.9041 62.9169 29.9041 62.2104C29.9041 61.4951 29.4494 61.1334 28.6084 61.1334H27.7332V63.3038H28.5325ZM31.1743 66.0465C31.1743 66.0465 30.9639 66.0886 30.7199 66.0886C29.1636 66.0886 29.6262 63.9011 28.1792 63.9011H27.7332V66.0381H26.9678V60.4854H28.642C29.9374 60.4854 30.6776 61.0071 30.6776 62.2104C30.6776 62.9842 30.1646 63.5226 29.4329 63.7663C30.1478 64.1703 30.1562 65.4745 30.9468 65.4745C31.048 65.4745 31.1155 65.4574 31.1155 65.4574L31.1743 66.0465ZM32.0817 66.038V60.4856H32.8471V66.038H32.0817ZM36.0181 64.5068C36.0772 64.6667 36.1361 64.8687 36.1949 65.0873H36.2117C36.2705 64.8687 36.3294 64.692 36.3969 64.5068L37.8439 60.4854H38.6348L36.565 66.0381H35.8161L33.7805 60.4854H34.5882L36.0181 64.5068ZM41.9903 64.0275L41.2415 62.0165C41.1826 61.8568 41.1238 61.6548 41.0647 61.4363H41.0482C40.9893 61.6548 40.9302 61.8568 40.8714 62.0165L40.1309 64.0275H41.9903ZM42.2259 64.6584H39.8953L39.3821 66.0381H38.5915L40.6778 60.4854H41.4435L43.5298 66.0381H42.7392L42.2259 64.6584ZM45.1103 61.1334H43.3269V60.4854H47.6595V61.1334H45.8757V66.0381H45.1103V61.1334ZM49.3326 61.1334V62.8326H51.7134V63.4806H49.3326V65.3901H52.0078V66.0381H48.567V60.4854H52.0078V61.1334H49.3326ZM0 0.280085H16.3748V2.72781H9.63399V21.2646H6.74054V2.72781H0V0.280085ZM26.3582 10.9307C29.315 10.9307 31.5405 9.46885 31.5405 6.79757C31.5405 4.09547 29.824 2.72775 26.6443 2.72775H23.3376V10.9307H26.3582ZM36.3421 21.2959C36.3421 21.2959 35.547 21.455 34.6245 21.455C28.7429 21.455 30.4914 13.1882 25.0222 13.1882H23.3376V21.2645H20.4441V0.280029H26.7714C31.6674 0.280029 34.4656 2.2512 34.4656 6.79757C34.4656 9.72296 32.5264 11.7577 29.7601 12.6797C32.4628 14.206 32.4942 19.1342 35.4829 19.1342C35.865 19.1342 36.1188 19.0703 36.1188 19.0703L36.3421 21.2959ZM43.3378 2.72781V9.15037H52.3358V11.5987H43.3378V18.8157H53.4486V21.2646H40.4443V0.280085H53.4486V2.72781H43.3378ZM61.6521 2.72781V9.15037H70.6501V11.5987H61.6521V18.8157H71.7626V21.2646H58.7586V0.280085H71.7626V2.72781H61.6521ZM12.6071 31.3138H5.86624V28.8655H22.2411V31.3138H15.5002V49.85H12.6071V31.3138ZM67.1789 35.9558C67.1789 32.999 65.2074 31.3139 61.678 31.3139H58.1492V40.6296H61.7733C65.2394 40.6296 67.1789 38.9445 67.1789 35.9558ZM70.1043 35.9558C70.1043 40.5022 67.2425 43.0776 62.2187 43.0776H58.1492V49.8498H55.2555V28.8653H61.8691C67.1156 28.8653 70.1043 31.4094 70.1043 35.9558Z" fill="#201F21"/>
<path fill-rule="evenodd" clip-rule="evenodd" d="M35.379 55.4204C27.8067 54.6605 21.895 48.2687 21.895 40.4961C21.895 32.2118 28.6107 25.4961 36.895 25.4961C45.1792 25.4961 51.895 32.2118 51.895 40.4961C51.895 48.3565 45.8488 54.8048 38.1535 55.444L38.1601 55.5897H35.3708L35.379 55.4204ZM35.379 55.4204C35.8775 55.4705 36.3833 55.4961 36.895 55.4961C37.3188 55.4961 37.7385 55.4785 38.1535 55.444L37.7209 45.8865C38.0038 45.8858 38.3483 45.887 38.7365 45.8901C39.0878 45.8937 39.9218 45.9296 40.2303 45.9441C40.5385 45.9582 41.3602 46.0352 41.6476 46.0669C41.9345 46.0988 42.4245 46.1758 42.4869 46.1789C42.5489 46.1823 42.6172 46.147 42.6761 46.0388C42.7346 45.9296 42.724 45.8514 42.7027 45.8083C42.6814 45.7657 42.5738 45.7601 42.4228 45.7366C42.2709 45.7136 41.2408 45.5976 40.8295 45.5662C40.4177 45.534 39.8294 45.5071 39.5812 45.4965C39.3341 45.4858 38.0521 45.4735 37.8436 45.4754C37.8164 45.4757 37.7674 45.4764 37.7024 45.4775L37.6827 45.0421C37.6956 45.0405 37.7069 45.0391 37.7165 45.0378C37.961 45.0084 38.9735 44.8989 39.1906 44.8759C39.4083 44.8529 40.8402 44.7081 40.9915 44.6944C41.1436 44.6801 42.1743 44.5804 42.3127 44.5663C42.4497 44.5518 42.9058 44.521 42.9859 44.5036C43.0489 44.4896 43.1316 44.384 43.1585 44.268C43.1857 44.1526 43.1445 44.1133 43.1072 44.1044C43.0697 44.0954 42.4099 44.092 42.1875 44.0881C41.9642 44.0848 40.8083 44.0539 40.571 44.0455C40.3337 44.0363 39.2534 44.001 39.0982 43.9954C38.9492 43.99 37.9133 43.9555 37.6332 43.9479L37.6224 43.7094C37.652 43.7076 37.6776 43.706 37.6985 43.7046C38.0003 43.6855 38.8379 43.6348 39.1307 43.6141C39.4223 43.5922 40.5796 43.4858 40.92 43.4432C41.2607 43.4001 42.1124 43.2813 42.216 43.2429C42.3191 43.2059 42.3822 43.0204 42.3928 42.956C42.4032 42.8919 42.371 42.8437 42.332 42.842C42.2922 42.8403 41.8633 42.8778 41.5439 42.8935C41.3532 42.9036 40.4373 42.9294 40.1645 42.933C39.891 42.9364 38.9987 42.9305 38.7544 42.926C38.5838 42.9239 37.9795 42.9081 37.5856 42.8976L37.5771 42.7094C37.7152 42.6996 37.8183 42.6923 37.8591 42.689C38.0574 42.6733 39.3641 42.5498 39.6403 42.5195C39.9162 42.4887 40.966 42.3733 41.1806 42.3472C41.3943 42.3201 42.2497 42.2147 42.311 42.1934C42.371 42.1721 42.4351 42.0968 42.4777 41.9774C42.5211 41.8581 42.471 41.7992 42.4351 41.7922C42.3998 41.7855 41.9345 41.7922 41.5764 41.7956C41.2173 41.7992 40.26 41.7956 40.0415 41.7956C39.8221 41.7956 38.6777 41.7869 38.4384 41.7833C38.318 41.7816 37.9236 41.7743 37.5344 41.7671L37.5234 41.522C38.0299 41.5028 38.6777 41.4785 38.8432 41.4695C39.1072 41.4555 39.9916 41.416 40.2421 41.3981C40.4939 41.3801 41.5552 41.3095 41.881 41.277C42.2074 41.2451 43.0055 41.1574 43.1072 41.1241C43.2086 41.0899 43.2787 40.9406 43.2958 40.8672C43.3148 40.7946 43.2803 40.7321 43.2249 40.7209C43.1697 40.7108 42.0606 40.6318 41.8947 40.6243C41.7288 40.6176 40.6049 40.5744 40.4373 40.5716C40.2692 40.5677 39.1125 40.5607 38.89 40.5607C38.6915 40.5607 37.6966 40.5773 37.4801 40.5672L37.4795 40.5539C37.7638 40.5141 39.4358 40.3677 39.631 40.3447C39.8451 40.3197 40.8382 40.1791 41.1341 40.1259C41.4296 40.0721 42.234 39.9385 42.3127 39.9009C42.3909 39.8634 42.4617 39.7513 42.4886 39.6516C42.5152 39.551 42.4693 39.514 42.4458 39.5051C42.4228 39.4966 42.0056 39.4995 41.7779 39.4995C41.5512 39.4995 39.5588 39.5129 39.2464 39.5207C38.995 39.5275 37.9931 39.5408 37.434 39.5486L37.4171 39.1746C37.4233 39.1743 37.4293 39.174 37.4349 39.1736C37.6963 39.1591 38.5107 39.1109 38.8085 39.0868C39.1072 39.0627 39.5854 39.0162 39.8482 38.9814C40.1098 38.9467 40.694 38.8444 40.7637 38.8142C40.8332 38.7828 40.9119 38.687 40.9483 38.5761C40.9839 38.4648 40.9307 38.4217 40.8903 38.4144C40.8508 38.406 40.4239 38.369 40.2569 38.355C40.0902 38.3421 39.373 38.2827 39.2007 38.2715C39.0281 38.2592 38.2709 38.206 38.0921 38.1948C37.9853 38.1887 37.6594 38.1721 37.3711 38.1578L37.3654 38.0319C37.758 37.9966 38.3758 37.9309 38.7796 37.8717C39.2587 37.8011 40.0056 37.6709 40.365 37.5975C40.7248 37.5235 41.5481 37.3406 41.63 37.3058C41.7112 37.2711 41.7919 37.1484 41.8185 37.0503C41.8457 36.9526 41.7994 36.9083 41.7423 36.9021C41.6843 36.8954 40.8295 36.8618 40.6004 36.859C40.3726 36.8567 39.6451 36.859 39.4615 36.8635C39.2786 36.8674 38.2866 36.9021 38.1342 36.9083C38.0422 36.9127 37.6591 36.9329 37.3165 36.9513L37.2966 36.511C37.3528 36.5014 37.3993 36.4934 37.4321 36.4878C37.6674 36.4474 38.5777 36.3202 38.7701 36.2939C38.9629 36.2676 39.6409 36.1933 39.7969 36.1765C39.9529 36.1586 40.3796 36.1244 40.4121 36.1171C40.4443 36.1104 40.5603 36.0493 40.6166 35.8986C40.6727 35.747 40.6032 35.7162 40.5455 35.7101C40.4886 35.7028 40.0468 35.672 39.8294 35.6641C39.6114 35.6563 39.173 35.6507 38.8166 35.6563C38.4614 35.6619 37.6417 35.7045 37.5044 35.7123C37.466 35.7145 37.3752 35.7205 37.2611 35.7282L37.2499 35.4796C37.4121 35.4487 37.5454 35.4232 37.5988 35.4128C37.7731 35.3798 38.646 35.215 38.7289 35.1982C38.8119 35.1803 39.6156 35.0371 39.6434 35.0282C39.6722 35.0181 39.7353 34.9878 39.8011 34.8567C39.8664 34.7259 39.8241 34.6592 39.7941 34.6373C39.7652 34.6155 39.4417 34.6037 39.3288 34.6015C39.2164 34.5987 38.8811 34.5987 38.574 34.6172C38.2661 34.6362 37.7033 34.704 37.5758 34.7203C37.5342 34.7255 37.3934 34.7458 37.2178 34.7716L37.2049 34.4864C37.4384 34.44 37.6422 34.3993 37.7176 34.3832C37.9173 34.3418 38.8811 34.1333 39.1018 34.0824C39.3223 34.0311 40.0462 33.8529 40.0734 33.8445C40.102 33.8367 40.1793 33.803 40.2479 33.661C40.3227 33.5052 40.2692 33.4531 40.2211 33.4397C40.1726 33.4262 39.5335 33.4285 39.3086 33.433C39.0847 33.4369 38.2073 33.4918 37.928 33.5148C37.8638 33.5199 37.5085 33.5486 37.1637 33.5765L37.1562 33.4102C37.2202 33.4016 37.2692 33.395 37.2954 33.3915C37.4531 33.3702 38.3079 33.2657 38.4561 33.2483C38.6043 33.231 39.5913 33.1251 39.6739 33.1161C39.7574 33.1066 39.8518 33.1161 39.9283 32.9306C40.0039 32.7443 39.9294 32.7085 39.8958 32.7001C39.8627 32.6922 38.4776 32.6967 38.3731 32.6978C38.2844 32.6983 37.3892 32.7163 37.1245 32.7088L37.1236 32.6906C37.3989 32.6634 38.369 32.6159 38.4816 32.6082C38.613 32.5987 39.3669 32.5261 39.4534 32.5076C39.54 32.4886 39.6327 32.3328 39.6408 32.2207C39.6467 32.1386 39.5882 32.1123 39.5588 32.1039C39.5299 32.0955 38.5866 31.9801 38.4286 31.9571C38.2709 31.9341 37.4419 31.8568 37.4385 31.8282C37.4369 31.8162 38.1485 31.7517 38.2544 31.7411C38.3597 31.7305 39.0377 31.7013 39.0671 31.6924C39.0965 31.6828 39.1766 31.6374 39.2287 31.5103C39.2806 31.3833 39.2464 31.3267 39.222 31.3043C39.1979 31.2814 38.9253 31.2724 38.8407 31.2674C38.7572 31.2618 37.796 31.1923 37.677 31.1839C37.585 31.1783 37.2181 31.1561 37.0535 31.1408L37.0523 31.1147C37.171 31.0998 37.3864 31.0808 37.4402 31.076C37.515 31.0687 37.8103 31.0418 38.0173 31.0334C38.186 31.0256 38.3095 31.0289 38.3667 31.0194C38.4479 31.0065 38.5323 30.8984 38.5701 30.802C38.6071 30.7054 38.5712 30.6561 38.546 30.6331C38.5205 30.6107 38.193 30.5625 38.0868 30.5479C37.982 30.5328 37.406 30.465 37.3158 30.4543C37.2778 30.4499 37.1559 30.4347 37.0208 30.4177L37.0096 30.1698C37.1542 30.1458 37.3214 30.117 37.4268 30.096C37.6075 30.0596 37.984 29.9551 38.0468 29.9204C38.1171 29.8817 38.2277 29.7282 38.2325 29.6413C38.2384 29.5542 38.2196 29.5357 38.0905 29.5155C37.9643 29.4962 37.183 29.45 36.9765 29.4386L36.9662 29.2117C37.1924 29.1471 37.5409 29.0453 37.598 29.0155C37.6694 28.9779 37.7784 28.818 37.7913 28.7149C37.7997 28.6543 37.7596 28.6269 37.7352 28.6185C37.7111 28.6101 37.5988 28.6056 37.5119 28.5983C37.4257 28.5916 37.0262 28.5574 36.9612 28.5518C36.9553 28.5513 36.9468 28.5506 36.9362 28.5497L36.9187 28.1622C36.9379 28.1379 36.9465 28.1142 36.9413 28.0767C36.9373 28.0471 36.9261 28.0229 36.9115 28.0037L36.88 27.3079C36.88 27.3079 36.88 27.2303 36.808 27.2331C36.7411 27.2359 36.7405 27.3091 36.7405 27.3091L36.707 28.0018C36.6289 28.0573 36.5093 28.1474 36.3406 28.2518C36.1678 28.3582 35.9148 28.4641 35.868 28.4921C35.8215 28.521 35.7419 28.6577 35.729 28.7098C35.7167 28.7614 35.7061 28.8471 35.7655 28.8653C35.8237 28.8832 35.9843 28.8866 36.0585 28.8916C36.1336 28.8972 36.66 28.9062 36.658 28.9275C36.6564 28.9488 35.8716 29.113 35.7557 29.1449C35.6397 29.1768 35.5133 29.2015 35.4475 29.2752C35.3816 29.348 35.3122 29.4713 35.3315 29.5458C35.3508 29.6206 35.6349 29.68 35.8237 29.7226C36.0126 29.7652 36.6166 29.815 36.6166 29.8346C36.6166 29.8543 35.8809 29.9789 35.6366 30.0557C35.3923 30.1319 35.3197 30.1745 35.2519 30.2854C35.1839 30.3961 35.2054 30.4818 35.2374 30.5137C35.2696 30.5462 35.5318 30.6067 35.6845 30.6404C35.8334 30.673 36.5298 30.7717 36.5717 30.794L36.5716 30.7974C36.519 30.8198 35.5171 30.9406 35.2519 30.9696C34.9785 31.0004 34.5938 31.011 34.5188 31.0217C34.444 31.0329 34.3142 31.2052 34.3064 31.3032C34.2988 31.4013 34.3159 31.4248 34.4456 31.4282C34.5759 31.4321 35.3279 31.457 35.5402 31.4677C35.7526 31.4783 36.5353 31.4996 36.5336 31.5248C36.5314 31.5495 34.9575 31.624 34.8681 31.6369C34.7787 31.6492 34.6863 31.7915 34.6653 31.8512C34.644 31.9095 34.6129 32.0215 34.7059 32.0361C34.7986 32.0501 34.9533 32.0484 35.0782 32.054C35.1724 32.0582 36.0153 32.1155 36.506 32.1504L36.4971 32.3342C36.1208 32.3578 35.2926 32.4137 35.1211 32.4303C34.918 32.4493 34.4168 32.4958 34.3689 32.5121C34.3213 32.5283 34.2459 32.5807 34.1983 32.7135C34.1481 32.8525 34.1946 32.899 34.2854 32.9186C34.4213 32.948 35.2561 32.9794 35.4662 32.9962C35.6705 33.0114 36.4204 33.0383 36.4623 33.0527L36.4622 33.0556C36.4233 33.0765 35.8218 33.1996 35.685 33.2186C35.545 33.2377 34.802 33.3467 34.5916 33.378C34.3812 33.4105 33.4102 33.5534 33.3376 33.5725C33.2639 33.5921 33.1715 33.7655 33.1608 33.7969C33.1502 33.8294 33.1272 33.9414 33.2239 33.9723C33.3231 34.0025 33.8825 34.0577 33.8825 34.0577C34.2316 34.0936 34.918 34.1081 35.4063 34.0936C35.6616 34.0856 36.0694 34.0585 36.4149 34.0328L36.4039 34.259C36.0717 34.3235 35.6616 34.4016 35.5256 34.4284C35.3085 34.4715 34.2422 34.6867 34.0089 34.7365C33.7758 34.7867 32.6723 35.0343 32.6257 35.0523C32.5792 35.0702 32.4829 35.1865 32.4599 35.261C32.4369 35.3361 32.4299 35.41 32.5042 35.4425C32.5792 35.475 33.1174 35.5431 33.3726 35.5565C33.6273 35.5717 34.0859 35.5661 34.3372 35.5481C34.5882 35.5294 35.5531 35.4016 35.5531 35.4139C35.5531 35.4268 33.9554 35.7067 33.7831 35.7386C33.6097 35.7706 32.7969 35.9025 32.7664 35.9132C32.7356 35.9238 32.7003 35.9457 32.649 36.0202C32.5972 36.0947 32.572 36.2006 32.5736 36.227C32.5762 36.2538 32.5778 36.3113 32.6504 36.318C32.7238 36.3247 33.1356 36.3303 33.501 36.332C33.8666 36.3342 34.5686 36.304 34.8379 36.2917C35.1068 36.2788 36.0949 36.2073 36.261 36.195C36.2739 36.194 36.2906 36.1926 36.3103 36.191L36.3039 36.323C35.9726 36.3745 35.3409 36.4733 35.0441 36.5309C34.6336 36.611 33.7876 36.7548 33.3606 36.8203C33.0295 36.8719 32.4669 36.9458 32.417 36.9615C32.3674 36.9772 32.2691 37.1164 32.2498 37.1988C32.2299 37.2801 32.2515 37.3411 32.2994 37.3551C32.3476 37.3697 32.7297 37.3946 32.9754 37.4092C33.2211 37.4232 34.0417 37.4501 34.4339 37.4518C34.8255 37.4535 35.7884 37.4288 36.1036 37.4165C36.145 37.4148 36.195 37.4125 36.2513 37.4098L36.237 37.7063C36.1232 37.7133 36.0293 37.7189 35.97 37.7224C35.6957 37.7387 34.4456 37.8224 34.1694 37.8454C33.8929 37.8689 32.8093 37.9743 32.5832 38.0023C32.3568 38.0309 31.5295 38.1449 31.4693 38.1578C31.4085 38.1701 31.3496 38.2738 31.3135 38.341C31.2785 38.4088 31.2743 38.5155 31.3068 38.5424C31.3384 38.5693 31.3726 38.557 31.5205 38.5531C31.6685 38.5497 32.8804 38.5155 33.0821 38.5105C33.2833 38.5055 34.4888 38.4999 34.7118 38.4999C34.934 38.4999 35.9613 38.5155 36.1448 38.5211C36.1575 38.5215 36.1753 38.5222 36.1974 38.523L36.1825 38.8314C36.1163 38.8345 36.0647 38.8369 36.0341 38.8383C35.8327 38.8472 34.5782 38.9187 34.2818 38.9383C33.9859 38.9585 32.9342 39.0649 32.4423 39.1378C31.95 39.2112 31.3454 39.3874 31.2908 39.4126C31.2359 39.4373 31.1535 39.546 31.1199 39.623C31.0855 39.6998 31.0841 39.7849 31.1566 39.8079C31.23 39.8314 32.2086 39.8849 32.4204 39.8992C32.6333 39.9132 33.7293 39.9452 33.9607 39.9558C34.1924 39.9667 35.3892 39.9701 35.6066 39.9701C35.6875 39.9701 35.8922 39.9691 36.1274 39.9678L36.1132 40.262C35.9719 40.2721 35.8587 40.2802 35.8002 40.2844C35.5548 40.3018 34.0108 40.4108 33.7665 40.4287C33.5225 40.4467 32.1641 40.566 32.0105 40.5817C31.8576 40.5974 30.902 40.6977 30.8538 40.7153C30.8056 40.7338 30.7207 40.8386 30.6952 40.9523C30.6703 41.0666 30.7078 41.1098 30.7577 41.1129C30.8073 41.1168 32.2055 41.0666 32.4705 41.0577C32.7356 41.0487 33.9394 41.0171 34.1352 41.0117C34.3313 41.0061 35.6666 40.9719 35.8949 40.9705C35.9322 40.9702 35.9965 40.9696 36.0789 40.9687L36.0692 41.1705C35.724 41.1871 34.5781 41.2418 34.3053 41.2591C34.0033 41.2787 32.8185 41.3678 32.5277 41.3964C32.2375 41.4252 31.3936 41.5415 31.3208 41.5603C31.2482 41.5799 31.1605 41.7222 31.1395 41.8029C31.1182 41.8827 31.1412 41.9545 31.2014 41.962C31.262 41.969 32.6633 42.0315 32.9555 42.0419C33.2474 42.0525 34.4154 42.1007 34.6129 42.1057C34.7739 42.1103 35.6055 42.1343 36.0219 42.1472L36.0078 42.4376C35.9805 42.4397 35.9575 42.4414 35.9394 42.4428C35.6772 42.4632 34.3566 42.5464 34.1198 42.5624C33.8825 42.5786 32.6367 42.6548 32.3551 42.6711C32.0736 42.6873 31.0656 42.7448 30.8613 42.7568C30.6557 42.7691 29.9786 42.8084 29.8825 42.819C29.7864 42.8297 29.688 43.0025 29.6687 43.072C29.6494 43.1418 29.6651 43.216 29.7116 43.2236C29.7575 43.2311 29.927 43.2182 30.0534 43.2076C30.1803 43.1969 30.9698 43.1717 31.2482 43.1616C31.5259 43.1504 32.4851 43.1577 32.8644 43.1616C33.2443 43.165 34.421 43.1986 34.7418 43.2118C34.974 43.2203 35.5715 43.2405 35.9683 43.2542L35.9614 43.3962C35.6271 43.4156 34.839 43.4612 34.4935 43.4875C34.1181 43.5155 33.0961 43.6088 32.8558 43.641C32.6151 43.6732 32.0251 43.7494 31.7808 43.7909C31.5371 43.8318 30.677 43.994 30.6075 44.0133C30.538 44.0329 30.4439 44.2254 30.431 44.2932C30.4195 44.3604 30.4279 44.4235 30.535 44.4106C30.6417 44.3985 31.8309 44.3375 32.0604 44.3268C32.2904 44.3162 33.3062 44.2949 33.622 44.2932C33.9377 44.291 34.911 44.2968 35.1679 44.2988C35.2916 44.2996 35.6043 44.3058 35.917 44.3125L35.8903 44.8643C35.6906 44.8894 35.5176 44.9113 35.4158 44.9241C35.1088 44.9639 34.063 45.1073 33.8472 45.1381C33.631 45.1687 32.3156 45.3642 32.089 45.4018C31.8634 45.4393 30.8448 45.6015 30.6862 45.6301C30.5274 45.6587 29.7345 45.7959 29.6864 45.8083C29.6382 45.8206 29.5807 45.873 29.5454 45.9526C29.509 46.0332 29.4835 46.1324 29.5029 46.1688C29.5295 46.2165 29.5653 46.2117 29.6704 46.2058C29.7757 46.2008 30.7938 46.161 31.0978 46.1487C31.4026 46.1358 32.4728 46.0814 32.6456 46.0725C32.8185 46.0629 33.9002 46.0047 34.1181 45.9974C34.3353 45.9907 35.3391 45.9385 35.6772 45.9296C35.7219 45.9285 35.7767 45.9271 35.8389 45.9255L35.379 55.4204ZM35.8587 45.5166C35.5091 45.5301 34.4217 45.5776 34.2546 45.5858C34.073 45.5948 33.0407 45.6654 33.0426 45.6463C33.0449 45.627 33.9949 45.5107 34.2229 45.478C34.451 45.4466 35.5495 45.3006 35.8128 45.2679C35.8284 45.266 35.848 45.2637 35.8711 45.2609L35.8587 45.5166ZM35.937 43.8998C35.8924 43.8986 35.8584 43.8978 35.838 43.8973C35.6492 43.8934 34.5493 43.899 34.5493 43.8816C34.5493 43.864 35.6708 43.8082 35.9041 43.7976C35.9147 43.7971 35.9274 43.7965 35.942 43.7958L35.937 43.8998ZM36.0419 41.7345C35.7596 41.7261 35.4695 41.7173 35.348 41.7138C35.1124 41.7065 33.9803 41.6908 33.9803 41.6679C33.9803 41.6443 35.355 41.6051 35.5584 41.5998C35.6378 41.5977 35.8315 41.5904 36.0493 41.5818L36.0419 41.7345ZM36.1471 39.5606C35.7901 39.5621 35.4558 39.5627 35.3528 39.5616C35.1393 39.5588 33.9201 39.5398 33.727 39.5347C33.5349 39.5291 32.7034 39.5207 32.7034 39.4944C32.7034 39.4681 34.003 39.3554 34.6017 39.3179C34.8558 39.3022 35.8545 39.2512 36.0512 39.24C36.0769 39.2387 36.1152 39.2368 36.1629 39.2345L36.1471 39.5606ZM36.2709 37.0045C35.9617 37.0168 35.6225 37.0284 35.5069 37.0307C35.3102 37.0346 34.3759 37.0503 34.3759 37.0374C34.3759 37.0234 35.8915 36.7592 36.0736 36.7245C36.1134 36.7169 36.1894 36.7033 36.2864 36.6861L36.2709 37.0045ZM36.3296 35.793C36.0391 35.8146 35.1979 35.8777 35.1979 35.8658C35.1979 35.8524 36.1806 35.6821 36.2969 35.6602C36.3055 35.6586 36.3189 35.6561 36.3364 35.6529L36.3296 35.793ZM36.373 34.8975C36.3194 34.9057 36.2784 34.9119 36.2554 34.9155C36.0955 34.9408 35.2519 35.0719 34.8211 35.1094C34.4756 35.1391 33.8638 35.1685 33.8638 35.1531C33.8638 35.1385 34.8863 34.9447 35.0317 34.9155C35.1785 34.8864 36.0778 34.7096 36.2512 34.6749C36.2773 34.6697 36.3239 34.6605 36.3851 34.6484L36.373 34.8975ZM36.4341 33.6351C35.8837 33.6769 35.1281 33.7033 35.1281 33.6879C35.1281 33.6722 35.9425 33.5742 36.0467 33.5602C36.0854 33.5545 36.2459 33.5328 36.4404 33.5065L36.4341 33.6351ZM36.5926 30.3628C36.5829 30.3615 36.5751 30.3604 36.5695 30.3597C36.4871 30.3473 36.1966 30.3084 36.1975 30.3017C36.1987 30.2969 36.4251 30.2614 36.5988 30.2346L36.5926 30.3628ZM36.6386 29.4125C36.4787 29.3983 36.3342 29.3832 36.3342 29.3794C36.3342 29.3747 36.5079 29.3331 36.6441 29.2994L36.6386 29.4125ZM36.6815 28.5278C36.5937 28.5195 36.5199 28.5111 36.5199 28.5064C36.5199 28.5012 36.6071 28.4396 36.6888 28.3773L36.6815 28.5278ZM37.1014 32.1999C37.3523 32.2246 37.6646 32.2581 37.6646 32.2678C37.6646 32.2764 37.3799 32.2912 37.1061 32.3039L37.1014 32.1999ZM37.1815 33.9695C37.522 33.9382 38.2196 33.8751 38.2196 33.8899C38.2196 33.9028 37.6023 34.0218 37.1876 34.1026L37.1815 33.9695ZM37.3346 37.3514C37.3968 37.3479 37.4494 37.345 37.4884 37.3428C37.7394 37.3282 38.7948 37.2857 39.027 37.2784C39.2587 37.2717 40.0714 37.2464 40.0714 37.2683C40.0714 37.289 38.9576 37.4624 38.4244 37.523C38.1619 37.5532 37.8756 37.5868 37.5652 37.6154C37.5113 37.6205 37.4361 37.6265 37.3473 37.6332L37.3346 37.3514ZM37.39 38.5754C37.5461 38.5826 37.6654 38.5884 37.7058 38.5906C37.8557 38.5996 38.9665 38.6562 38.9665 38.6747C38.9665 38.6926 37.7473 38.7548 37.5475 38.7654C37.517 38.767 37.4653 38.7695 37.3989 38.7728L37.39 38.5754ZM37.4525 39.9569C37.8373 39.9509 38.4149 39.9409 38.546 39.9385C38.7278 39.9351 39.861 39.9043 39.8594 39.9239C39.8574 39.9435 39.0859 40.0082 38.9253 40.0278C38.7657 40.0468 37.6673 40.1477 37.4619 40.1648L37.4525 39.9569ZM37.4976 40.953C37.5299 40.9527 37.556 40.9525 37.5744 40.9523C37.7879 40.9507 38.9629 40.9563 39.1425 40.9596C39.3229 40.9635 40.5169 40.9775 40.5155 40.9924C40.5138 41.0061 39.6938 41.0308 39.5436 41.0381C39.394 41.0453 38.318 41.0806 38.1249 41.0899C38.056 41.0931 37.8059 41.1027 37.5049 41.1141L37.4976 40.953ZM37.5531 42.1801C37.5871 42.1806 37.612 42.1808 37.6257 42.1808C37.7509 42.1808 38.8671 42.1845 38.8645 42.2007C38.8629 42.2164 37.9308 42.2808 37.7257 42.3016C37.6941 42.3051 37.636 42.3104 37.5593 42.3169L37.5531 42.1801ZM37.6519 44.3612C37.9408 44.3707 38.1986 44.3794 38.2695 44.3823C38.4367 44.3898 39.6563 44.4128 39.6563 44.4302C39.6563 44.449 38.9419 44.5072 38.7861 44.5249C38.6848 44.5366 38.1376 44.5962 37.6649 44.6491L37.6519 44.3612Z" fill="#005D4A"/>
</g>
<defs>
<clipPath id="clip0_21_1026">
<rect width="72" height="71" fill="white"/>
</clipPath>
</defs>
</svg>
