<svg width="24" height="24" viewBox="0 0 24 24" fill="none" xmlns="http://www.w3.org/2000/svg">
<path d="M11.1914 12.5695L3.18515 6.34452L2.54062 5.84296L3.18749 6.34686V18.5625H20.8125V6.34686L12.8016 12.5695C12.5713 12.7484 12.288 12.8455 11.9965 12.8455C11.7049 12.8455 11.4216 12.7484 11.1914 12.5695V12.5695Z" fill="#3E3E3E" fill-opacity="0.15"/>
<path d="M20.5383 4.65936L21.4594 5.84296L20.8125 6.34686L21.4617 5.84296L20.5406 4.65936H20.5383Z" fill="#3E3E3E" fill-opacity="0.15"/>
<path d="M21.75 3.75H2.25C1.83516 3.75 1.5 4.08516 1.5 4.5V19.5C1.5 19.9148 1.83516 20.25 2.25 20.25H21.75C22.1648 20.25 22.5 19.9148 22.5 19.5V4.5C22.5 4.08516 22.1648 3.75 21.75 3.75ZM19.5352 5.43984L12 11.2969L4.46484 5.43984H19.5352ZM20.8125 6.34687V18.5625H3.1875V6.34687L2.54063 5.84297L3.18516 6.34453L11.1914 12.5695C11.4217 12.7484 11.7049 12.8455 11.9965 12.8455C12.2881 12.8455 12.5713 12.7484 12.8016 12.5695L20.8125 6.34687L21.4594 5.84297L20.5383 4.65938H20.5406L21.4617 5.84297L20.8125 6.34687Z" fill="#3E3E3E"/>
</svg>
