<svg width="36" height="24" viewBox="0 0 36 24" fill="none" xmlns="http://www.w3.org/2000/svg">
<path fill-rule="evenodd" clip-rule="evenodd" d="M35.5 12C35.5 11.6685 35.3683 11.3505 35.1339 11.1161C34.8995 10.8817 34.5815 10.75 34.25 10.75H4.76751L12.635 2.88499C12.7512 2.76877 12.8434 2.6308 12.9063 2.47895C12.9692 2.3271 13.0016 2.16435 13.0016 1.99999C13.0016 1.83563 12.9692 1.67288 12.9063 1.52103C12.8434 1.36918 12.7512 1.23121 12.635 1.11499C12.5188 0.998772 12.3808 0.906582 12.229 0.843684C12.0771 0.780786 11.9144 0.748413 11.75 0.748413C11.5856 0.748413 11.4229 0.780786 11.271 0.843684C11.1192 0.906582 10.9812 0.998772 10.865 1.11499L0.865007 11.115C0.748599 11.2311 0.656241 11.369 0.593225 11.5209C0.530209 11.6728 0.497772 11.8356 0.497772 12C0.497772 12.1644 0.530209 12.3272 0.593225 12.4791C0.656241 12.6309 0.748599 12.7689 0.865007 12.885L10.865 22.885C10.9812 23.0012 11.1192 23.0934 11.271 23.1563C11.4229 23.2192 11.5856 23.2516 11.75 23.2516C11.9144 23.2516 12.0771 23.2192 12.229 23.1563C12.3808 23.0934 12.5188 23.0012 12.635 22.885C12.7512 22.7688 12.8434 22.6308 12.9063 22.479C12.9692 22.3271 13.0016 22.1644 13.0016 22C13.0016 21.8356 12.9692 21.6729 12.9063 21.521C12.8434 21.3692 12.7512 21.2312 12.635 21.115L4.76751 13.25H34.25C34.5815 13.25 34.8995 13.1183 35.1339 12.8839C35.3683 12.6495 35.5 12.3315 35.5 12Z" fill="#0E68A5"/>
</svg>
