<svg width="32" height="25" viewBox="0 0 32 25" fill="none" xmlns="http://www.w3.org/2000/svg">
<path d="M14.4098 17.735C14.4463 18.5867 14.2946 19.436 13.9655 20.2224C13.6364 21.0089 13.138 21.7131 12.5058 22.285L12.5008 22.289C11.1919 23.4496 9.48719 24.0632 7.73884 24.003H7.74984C6.69305 24.0601 5.63665 23.8839 4.65567 23.4867C3.6747 23.0896 2.79321 22.4812 2.07384 21.705L2.06984 21.701C0.627626 19.9896 -0.107979 17.7928 0.0128355 15.558L0.0118355 15.579C-0.0551871 13.2582 0.376174 10.95 1.27684 8.81L1.23684 8.917C1.95595 7.23916 2.95369 5.69505 4.18784 4.35L4.17684 4.362C5.19642 3.2559 6.37785 2.31083 7.68084 1.559L7.75284 1.521C8.73832 0.952483 9.76679 0.461985 10.8288 0.054L10.9848 0.001L14.1188 5.291C12.8165 5.81645 11.6734 6.67182 10.8018 7.773L10.7888 7.79C9.92103 8.82371 9.37674 10.09 9.22383 11.431L9.22084 11.463C9.90279 11.4801 10.5734 11.6411 11.1888 11.9354C11.8043 12.2298 12.3505 12.6508 12.7918 13.171L12.7978 13.178C13.9199 14.4274 14.5004 16.071 14.4118 17.748L14.4128 17.733L14.4098 17.735ZM31.3578 17.735C31.3939 18.5869 31.2419 19.4363 30.9127 20.2229C30.5834 21.0094 30.085 21.7138 29.4528 22.286L29.4478 22.29C28.1391 23.451 26.4343 24.0647 24.6858 24.004H24.6968C23.64 24.0614 22.5835 23.8853 21.6025 23.4881C20.6215 23.0909 19.74 22.4825 19.0208 21.706L19.0168 21.701C17.574 19.9895 16.8384 17.7922 16.9598 15.557L16.9588 15.578C16.8918 13.2572 17.3232 10.949 18.2238 8.809L18.1838 8.916C18.9026 7.23845 19.8996 5.69439 21.1328 4.349L21.1218 4.361C22.1418 3.25488 23.3235 2.30981 24.6268 1.558L24.6988 1.52C25.6841 0.951082 26.7126 0.460569 27.7748 0.053L27.9308 0L31.0638 5.29C29.7613 5.81609 28.6182 6.67216 27.7468 7.774L27.7338 7.791C26.866 8.82471 26.3217 10.091 26.1688 11.432L26.1658 11.464C26.8475 11.481 27.5179 11.6419 28.133 11.9363C28.7481 12.2307 29.294 12.6518 29.7348 13.172L29.7408 13.179C30.8642 14.4275 31.4458 16.0709 31.3578 17.748L31.3588 17.733L31.3578 17.735Z" fill="#0E68A5" fill-opacity="0.2"/>
</svg>
