<svg width="19" height="19" viewBox="0 0 19 19" fill="none" xmlns="http://www.w3.org/2000/svg">
<path d="M8.03275 10.8933C9.13448 12.011 10.4675 12.8739 11.9383 13.4214L13.928 11.8381C13.987 11.7974 14.057 11.7757 14.1286 11.7757C14.2002 11.7757 14.2702 11.7974 14.3291 11.8381L18.0236 14.2183C18.1638 14.3027 18.2826 14.4184 18.3704 14.5565C18.4582 14.6946 18.5127 14.8512 18.5296 15.014C18.5465 15.1768 18.5253 15.3413 18.4677 15.4945C18.4101 15.6476 18.3177 15.7853 18.1978 15.8967L16.4666 17.6067C16.2187 17.8516 15.914 18.0314 15.5797 18.1299C15.2454 18.2285 14.8919 18.2427 14.5508 18.1714C11.1478 17.4686 8.01119 15.8225 5.49942 13.4214C3.0434 10.9964 1.34384 7.91078 0.606921 4.53889C0.534123 4.20303 0.549317 3.85406 0.651031 3.52581C0.752745 3.19755 0.937529 2.90113 1.18748 2.66528L2.98192 0.934166C3.09297 0.820054 3.22839 0.732542 3.37804 0.678182C3.5277 0.623823 3.68772 0.604025 3.84611 0.62027C4.0045 0.636515 4.15717 0.688384 4.29268 0.771991C4.42818 0.855598 4.54302 0.968778 4.62859 1.10306L7.08803 4.75C7.13045 4.80727 7.15335 4.87665 7.15335 4.94792C7.15335 5.01918 7.13045 5.08857 7.08803 5.14583L5.46775 7.09333C6.03014 8.53466 6.90634 9.83272 8.03275 10.8933Z" fill="#005D4A"/>
</svg>
