<svg width="80" height="80" viewBox="0 0 80 80" fill="none" xmlns="http://www.w3.org/2000/svg">
<path d="M40 0C17.9107 0 0 17.9107 0 40C0 62.0893 17.9107 80 40 80C62.0893 80 80 62.0893 80 40C80 17.9107 62.0893 0 40 0ZM40 73.2143C21.6607 73.2143 6.78571 58.3393 6.78571 40C6.78571 21.6607 21.6607 6.78571 40 6.78571C58.3393 6.78571 73.2143 21.6607 73.2143 40C73.2143 58.3393 58.3393 73.2143 40 73.2143Z" fill="#00DBB1"/>
<path d="M39.9999 6.78571C21.6606 6.78571 6.78564 21.6607 6.78564 40C6.78564 58.3393 21.6606 73.2143 39.9999 73.2143C58.3392 73.2143 73.2142 58.3393 73.2142 40C73.2142 21.6607 58.3392 6.78571 39.9999 6.78571ZM57.2678 26.9375L38.4642 53.0089C38.2014 53.3757 37.8549 53.6746 37.4536 53.8808C37.0522 54.087 36.6074 54.1946 36.1562 54.1946C35.7049 54.1946 35.2602 54.087 34.8588 53.8808C34.4574 53.6746 34.111 53.3757 33.8481 53.0089L22.7231 37.5804C22.3839 37.1071 22.7231 36.4464 23.3035 36.4464H27.491C28.4106 36.4464 29.2678 36.8929 29.8035 37.6339L36.1606 46.4554L50.1964 26.9911C50.7321 26.2411 51.5981 25.8036 52.5089 25.8036H56.6964C57.2767 25.8036 57.616 26.4643 57.2678 26.9375Z" fill="#00DBB1" fill-opacity="0.15"/>
<path d="M56.6967 25.8036H52.5092C51.5984 25.8036 50.7324 26.2411 50.1967 26.9911L36.1609 46.4554L29.8038 37.6339C29.2681 36.8929 28.4109 36.4464 27.4913 36.4464H23.3038C22.7234 36.4464 22.3842 37.1071 22.7234 37.5804L33.8484 53.0089C34.1113 53.3757 34.4577 53.6746 34.8591 53.8808C35.2605 54.087 35.7052 54.1946 36.1565 54.1946C36.6077 54.1946 37.0525 54.087 37.4539 53.8808C37.8552 53.6746 38.2017 53.3757 38.4645 53.0089L57.2681 26.9375C57.6163 26.4643 57.277 25.8036 56.6967 25.8036Z" fill="#00DBB1"/>
</svg>
