<svg width="33" height="32" viewBox="0 0 33 32" fill="none" xmlns="http://www.w3.org/2000/svg">
<g clip-path="url(#clip0_5_7)">
<path d="M16.1559 30C12.4429 30 8.8819 28.525 6.25639 25.8995C3.63088 23.274 2.15588 19.713 2.15588 16C2.15588 12.287 3.63088 8.72601 6.25639 6.1005C8.8819 3.475 12.4429 2 16.1559 2C19.8689 2 23.4299 3.475 26.0554 6.1005C28.6809 8.72601 30.1559 12.287 30.1559 16C30.1559 19.713 28.6809 23.274 26.0554 25.8995C23.4299 28.525 19.8689 30 16.1559 30ZM16.1559 32C20.3993 32 24.469 30.3143 27.4696 27.3137C30.4702 24.3131 32.1559 20.2435 32.1559 16C32.1559 11.7565 30.4702 7.68687 27.4696 4.68629C24.469 1.68571 20.3993 0 16.1559 0C11.9124 0 7.84276 1.68571 4.84218 4.68629C1.84159 7.68687 0.155884 11.7565 0.155884 16C0.155884 20.2435 1.84159 24.3131 4.84218 27.3137C7.84276 30.3143 11.9124 32 16.1559 32Z" fill="#00DBB1"/>
<path d="M22.0959 9.94001C22.0816 9.95382 22.0683 9.96852 22.0559 9.98401L15.1099 18.834L10.9239 14.646C10.6395 14.3811 10.2634 14.2368 9.87484 14.2437C9.48624 14.2505 9.11547 14.4079 8.84065 14.6828C8.56582 14.9576 8.4084 15.3284 8.40154 15.717C8.39468 16.1056 8.53893 16.4817 8.80389 16.766L14.0959 22.06C14.2385 22.2023 14.4082 22.3144 14.5951 22.3897C14.7819 22.465 14.982 22.5019 15.1834 22.4981C15.3848 22.4944 15.5834 22.4501 15.7673 22.368C15.9512 22.2858 16.1167 22.1675 16.2539 22.02L24.2379 12.04C24.5098 11.7547 24.6584 11.3738 24.6517 10.9797C24.645 10.5857 24.4834 10.2101 24.202 9.9342C23.9206 9.65829 23.5419 9.50423 23.1478 9.50532C22.7536 9.5064 22.3758 9.66255 22.0959 9.94001Z" fill="#00DBB1"/>
</g>
<defs>
<clipPath id="clip0_5_7">
<rect width="32" height="32" fill="white" transform="translate(0.155884)"/>
</clipPath>
</defs>
</svg>
