<svg width="24" height="16" viewBox="0 0 24 16" fill="none" xmlns="http://www.w3.org/2000/svg">
<g clip-path="url(#clip0_4_164)">
<path d="M21.7871 8.80001C20.5204 6.83334 18.9329 5.36251 17.0246 4.38751C17.5329 5.25417 17.7871 6.19167 17.7871 7.20001C17.7871 8.74167 17.2391 10.0604 16.1433 11.1563C15.0475 12.2521 13.7287 12.8 12.1871 12.8C10.6454 12.8 9.32664 12.2521 8.23081 11.1563C7.13498 10.0604 6.58706 8.74167 6.58706 7.20001C6.58706 6.19167 6.84123 5.25417 7.34956 4.38751C5.44123 5.36251 3.85373 6.83334 2.58706 8.80001C3.69539 10.5083 5.08498 11.8688 6.75581 12.8813C8.42664 13.8938 10.2371 14.4 12.1871 14.4C14.1371 14.4 15.9475 13.8938 17.6183 12.8813C19.2891 11.8688 20.6787 10.5083 21.7871 8.80001ZM12.7871 4.00001C12.7871 3.83334 12.7287 3.69167 12.6121 3.57501C12.4954 3.45834 12.3537 3.40001 12.1871 3.40001C11.1454 3.40001 10.2516 3.77292 9.50581 4.51876C8.75998 5.26459 8.38706 6.15834 8.38706 7.20001C8.38706 7.36667 8.44539 7.50834 8.56206 7.62501C8.67873 7.74167 8.82039 7.80001 8.98706 7.80001C9.15373 7.80001 9.29539 7.74167 9.41206 7.62501C9.52873 7.50834 9.58706 7.36667 9.58706 7.20001C9.58706 6.48334 9.84123 5.87084 10.3496 5.36251C10.8579 4.85417 11.4704 4.60001 12.1871 4.60001C12.3537 4.60001 12.4954 4.54167 12.6121 4.42501C12.7287 4.30834 12.7871 4.16667 12.7871 4.00001ZM23.3871 8.80001C23.3871 9.08334 23.3037 9.37084 23.1371 9.66251C21.9704 11.5792 20.4016 13.1146 18.4308 14.2688C16.46 15.4229 14.3787 16 12.1871 16C9.99539 16 7.91414 15.4208 5.94331 14.2625C3.97248 13.1042 2.40373 11.5708 1.23706 9.66251C1.07039 9.37084 0.987061 9.08334 0.987061 8.80001C0.987061 8.51667 1.07039 8.22917 1.23706 7.93751C2.40373 6.02917 3.97248 4.49584 5.94331 3.33751C7.91414 2.17917 9.99539 1.60001 12.1871 1.60001C14.3787 1.60001 16.46 2.17917 18.4308 3.33751C20.4016 4.49584 21.9704 6.02917 23.1371 7.93751C23.3037 8.22917 23.3871 8.51667 23.3871 8.80001Z" fill="#0E68A5"/>
</g>
<defs>
<clipPath id="clip0_4_164">
<rect width="22.4" height="16" fill="white" transform="translate(0.987061)"/>
</clipPath>
</defs>
</svg>
