<svg width="24" height="24" viewBox="0 0 24 24" fill="none" xmlns="http://www.w3.org/2000/svg">
<path d="M12.0023 4.04529L3.33047 12.7101H5.58047V20.3437H9.1875V15C9.1875 14.482 9.60703 14.0625 10.125 14.0625H13.875C14.393 14.0625 14.8125 14.482 14.8125 15V20.3437H18.4195V12.7101H20.6719L12.5437 4.58669L12.0023 4.04529ZM22.1859 13.957C22.0453 14.0976 21.8789 14.2101 21.6984 14.2828C21.8789 14.2078 22.0453 14.0976 22.1859 13.957ZM1.39687 13.1437C1.51406 13.8539 2.13281 14.3976 2.87578 14.3976H2.89687C2.14922 14.3976 1.5164 13.8586 1.39687 13.1437ZM1.37578 12.8976V12.8531V12.8976ZM1.37812 12.8367C1.38047 12.764 1.38984 12.6937 1.40156 12.6234C1.3875 12.6914 1.38047 12.764 1.37812 12.8367Z" fill="#3E3E3E" fill-opacity="0.15"/>
<path d="M22.2891 11.9531C22.2891 11.9508 22.2867 11.9508 22.2867 11.9484L22.2445 11.8992C22.2422 11.8969 22.2398 11.8922 22.2352 11.8898C22.2188 11.8711 22.2 11.8523 22.1836 11.8336L13.1273 2.78437L12.5203 2.17734C12.382 2.03994 12.195 1.96283 12 1.96283C11.805 1.96283 11.618 2.03994 11.4797 2.17734L1.81641 11.8359C1.64184 12.0096 1.513 12.2238 1.44141 12.4594L1.42735 12.5086L1.42032 12.5344L1.41328 12.5625C1.4086 12.5789 1.40625 12.5953 1.40391 12.6117C1.40391 12.6141 1.40391 12.6187 1.40157 12.6211C1.3875 12.6914 1.38047 12.7617 1.37813 12.8344V12.9117C1.37813 12.9234 1.37813 12.9352 1.38047 12.9469C1.38047 12.9586 1.38047 12.968 1.38282 12.9797C1.38282 12.9914 1.38516 13.0031 1.38516 13.0148C1.38516 13.0289 1.3875 13.043 1.38985 13.057C1.38985 13.0641 1.39219 13.0711 1.39219 13.0781L1.39922 13.1367V13.1391C1.51875 13.8539 2.15391 14.393 2.89922 14.393H3.89532V22.0312H20.107V14.3977H21.1242C21.3258 14.3977 21.5203 14.3578 21.6984 14.2828C21.8766 14.2078 22.043 14.0977 22.1859 13.957C22.3256 13.8178 22.4362 13.6523 22.5115 13.4701C22.5867 13.2878 22.625 13.0925 22.6242 12.8953C22.6242 12.5508 22.507 12.2203 22.2891 11.9531V11.9531ZM13.3125 20.3437H10.6875V15.5625H13.3125V20.3437ZM18.4195 12.7102V20.3437H14.8125V15C14.8125 14.482 14.393 14.0625 13.875 14.0625H10.125C9.60703 14.0625 9.1875 14.482 9.1875 15V20.3437H5.58047V12.7102H3.33047L12.0023 4.04531L12.5438 4.58672L20.6719 12.7102H18.4195Z" fill="#3E3E3E"/>
</svg>
