<svg width="24" height="24" viewBox="0 0 24 24" fill="none" xmlns="http://www.w3.org/2000/svg">
<path opacity="0.2" d="M14.5219 19.0219C13.578 19.9662 12.3753 20.6094 11.0658 20.8701C9.75635 21.1308 8.39899 20.9973 7.16541 20.4865C5.93182 19.9757 4.87743 19.1105 4.1356 18.0004C3.39376 16.8903 2.9978 15.5852 2.9978 14.25C2.9978 12.9148 3.39376 11.6097 4.1356 10.4996C4.87743 9.38948 5.93182 8.52432 7.16541 8.01352C8.39899 7.50272 9.75635 7.36923 11.0658 7.62993C12.3753 7.89063 13.578 8.53381 14.5219 9.47813C15.7871 10.7439 16.4978 12.4603 16.4978 14.25C16.4978 16.0397 15.7871 17.7561 14.5219 19.0219V19.0219Z" fill="white"/>
<path d="M20.25 3H15.75C15.5511 3 15.3603 3.07902 15.2197 3.21967C15.079 3.36032 15 3.55109 15 3.75C15 3.94891 15.079 4.13968 15.2197 4.28033C15.3603 4.42098 15.5511 4.5 15.75 4.5H18.4406L14.4937 8.44687C13.004 7.22896 11.1032 6.6302 9.18442 6.77445C7.26563 6.91869 5.47568 7.79491 4.1848 9.22185C2.89392 10.6488 2.20087 12.5173 2.24899 14.4409C2.29711 16.3645 3.08273 18.196 4.44334 19.5566C5.80396 20.9173 7.63548 21.7029 9.55908 21.751C11.4827 21.7991 13.3512 21.1061 14.7781 19.8152C16.2051 18.5243 17.0813 16.7344 17.2255 14.8156C17.3698 12.8968 16.771 10.996 15.5531 9.50625L19.5 5.55937V8.25C19.5 8.44891 19.579 8.63968 19.7197 8.78033C19.8603 8.92098 20.0511 9 20.25 9C20.4489 9 20.6397 8.92098 20.7803 8.78033C20.921 8.63968 21 8.44891 21 8.25V3.75C21 3.55109 20.921 3.36032 20.7803 3.21967C20.6397 3.07902 20.4489 3 20.25 3V3ZM13.9969 18.4969C13.1573 19.3348 12.0882 19.905 10.9246 20.1356C9.76104 20.3661 8.55525 20.2466 7.4596 19.7921C6.36394 19.3377 5.42757 18.5686 4.76881 17.5822C4.11005 16.5957 3.75846 15.4362 3.75846 14.25C3.75846 13.0638 4.11005 11.9043 4.76881 10.9178C5.42757 9.93139 6.36394 9.16235 7.4596 8.70787C8.55525 8.25339 9.76104 8.13387 10.9246 8.36441C12.0882 8.59495 13.1573 9.16521 13.9969 10.0031C15.1178 11.1323 15.7469 12.6589 15.7469 14.25C15.7469 15.8411 15.1178 17.3677 13.9969 18.4969V18.4969Z" fill="white"/>
</svg>
