<svg width="36" height="24" viewBox="0 0 36 24" fill="none" xmlns="http://www.w3.org/2000/svg">
<path fill-rule="evenodd" clip-rule="evenodd" d="M0.499992 12C0.499992 11.6685 0.631687 11.3505 0.866108 11.1161C1.10053 10.8817 1.41847 10.75 1.74999 10.75H31.2325L23.365 2.88499C23.2488 2.76877 23.1566 2.6308 23.0937 2.47895C23.0308 2.3271 22.9984 2.16435 22.9984 1.99999C22.9984 1.83563 23.0308 1.67288 23.0937 1.52103C23.1566 1.36918 23.2488 1.23121 23.365 1.11499C23.4812 0.998772 23.6192 0.906582 23.771 0.843684C23.9229 0.780786 24.0856 0.748413 24.25 0.748413C24.4144 0.748413 24.5771 0.780786 24.729 0.843684C24.8808 0.906582 25.0188 0.998772 25.135 1.11499L35.135 11.115C35.2514 11.2311 35.3438 11.369 35.4068 11.5209C35.4698 11.6728 35.5022 11.8356 35.5022 12C35.5022 12.1644 35.4698 12.3272 35.4068 12.4791C35.3438 12.6309 35.2514 12.7689 35.135 12.885L25.135 22.885C25.0188 23.0012 24.8808 23.0934 24.729 23.1563C24.5771 23.2192 24.4144 23.2516 24.25 23.2516C24.0856 23.2516 23.9229 23.2192 23.771 23.1563C23.6192 23.0934 23.4812 23.0012 23.365 22.885C23.2488 22.7688 23.1566 22.6308 23.0937 22.479C23.0308 22.3271 22.9984 22.1644 22.9984 22C22.9984 21.8356 23.0308 21.6729 23.0937 21.521C23.1566 21.3692 23.2488 21.2312 23.365 21.115L31.2325 13.25H1.74999C1.41847 13.25 1.10053 13.1183 0.866108 12.8839C0.631687 12.6495 0.499992 12.3315 0.499992 12Z" fill="#0E68A5"/>
</svg>
