<svg width="31" height="24" viewBox="0 0 31 24" fill="none" xmlns="http://www.w3.org/2000/svg">
<g clip-path="url(#clip0_38_396)">
<path d="M16.948 6.27003C16.9114 5.41814 17.063 4.56866 17.3921 3.78205C17.7212 2.99544 18.2197 2.29105 18.852 1.71903L18.857 1.71503C20.166 0.554427 21.8706 -0.0591473 23.619 0.00102882H23.608C24.6648 -0.0561153 25.7212 0.120154 26.7022 0.517315C27.6831 0.914477 28.5646 1.52278 29.284 2.29903L29.288 2.30303C30.7302 4.01444 31.4658 6.21124 31.345 8.44603L31.346 8.42503C31.413 10.7458 30.9817 13.0541 30.081 15.194L30.121 15.087C29.4019 16.7646 28.4045 18.3087 27.171 19.654L27.182 19.642C26.1624 20.7481 24.981 21.6932 23.678 22.445L23.606 22.483C22.6205 23.0515 21.592 23.542 20.53 23.95L20.374 24.003L17.24 18.713C18.5423 18.1876 19.6855 17.3322 20.557 16.231L20.57 16.214C21.4378 15.1803 21.9821 13.914 22.135 12.573L22.138 12.541C21.456 12.524 20.7854 12.363 20.17 12.0686C19.5546 11.7743 19.0083 11.3532 18.567 10.833L18.561 10.826C17.4389 9.57662 16.8584 7.93301 16.947 6.25603L16.946 6.27103L16.948 6.27003ZM1.16602e-06 6.27003C-0.0360667 5.41811 0.115919 4.56871 0.44516 3.78216C0.774401 2.99561 1.27282 2.29122 1.905 1.71903L1.91 1.71503C3.21869 0.553979 4.92357 -0.0596626 6.672 0.00102882H6.661C7.71781 -0.0563932 8.7743 0.119749 9.75532 0.516927C10.7363 0.914106 11.6178 1.52256 12.337 2.29903L12.341 2.30403C13.7838 4.01549 14.5195 6.21284 14.398 8.44803L14.399 8.42703C14.466 10.7478 14.0347 13.0561 13.134 15.196L13.174 15.089C12.4552 16.7666 11.4582 18.3106 10.225 19.656L10.236 19.644C9.21606 20.7501 8.03429 21.6952 6.731 22.447L6.659 22.485C5.67373 23.0539 4.64522 23.5445 3.583 23.952L3.427 24.005L0.294001 18.715C1.59651 18.1889 2.73965 17.3329 3.611 16.231L3.624 16.214C4.4918 15.1803 5.03609 13.914 5.189 12.573L5.192 12.541C4.51031 12.524 3.83992 12.3631 3.22483 12.0687C2.60974 11.7744 2.06385 11.3533 1.623 10.833L1.617 10.826C0.49368 9.57757 -0.0879364 7.93416 1.16602e-06 6.25703L-0.000998835 6.27203L1.16602e-06 6.27003Z" fill="#0E68A5" fill-opacity="0.2"/>
</g>
<defs>
<clipPath id="clip0_38_396">
<rect width="31" height="24" fill="white"/>
</clipPath>
</defs>
</svg>
