<svg width="25" height="24" viewBox="0 0 25 24" fill="none" xmlns="http://www.w3.org/2000/svg">
<path d="M21.3332 4.93333C19.8225 4.53014 18.3466 4.00623 16.9198 3.36667C15.5161 2.75774 14.1611 2.04232 12.8665 1.22667L12.4998 1L12.1398 1.23333C10.8453 2.04899 9.49021 2.76441 8.0865 3.37333C6.65736 4.01096 5.17927 4.53264 3.6665 4.93333L3.1665 5.06V10.62C3.1665 19.5467 12.1865 22.8867 12.2732 22.92L12.4998 23L12.7265 22.92C12.8198 22.92 21.8332 19.5533 21.8332 10.62V5.06L21.3332 4.93333ZM20.4998 10.62C20.4998 17.9533 13.8332 21.0267 12.4998 21.5733C11.1665 21.0267 4.49984 17.9467 4.49984 10.62V6.09333C5.90615 5.68904 7.28278 5.18784 8.61984 4.59333C9.95698 4.01533 11.2533 3.34712 12.4998 2.59333C13.7464 3.34712 15.0427 4.01533 16.3798 4.59333C17.7169 5.18784 19.0935 5.68904 20.4998 6.09333V10.62Z" fill="#005D4A"/>
<path d="M7.75314 11.2466C7.6256 11.1374 7.46155 11.0804 7.29377 11.0868C7.12598 11.0933 6.96682 11.1629 6.84809 11.2816C6.72937 11.4003 6.65981 11.5595 6.65333 11.7273C6.64685 11.8951 6.70392 12.0591 6.81314 12.1866L10.8131 16.1866L18.0998 9.17998C18.2271 9.05621 18.3 8.88694 18.3025 8.70941C18.305 8.53187 18.2369 8.36062 18.1131 8.23331C17.9894 8.10601 17.8201 8.03308 17.6426 8.03058C17.465 8.02808 17.2938 8.09621 17.1665 8.21998L10.8531 14.3466L7.75314 11.2466Z" fill="#005D4A"/>
</svg>
