<svg width="24" height="24" viewBox="0 0 24 24" fill="none" xmlns="http://www.w3.org/2000/svg">
<path d="M14.4002 19.3334C14.4002 19.1565 14.33 18.987 14.205 18.8619C14.0799 18.7369 13.9104 18.6667 13.7336 18.6667H9.73356C9.55675 18.6667 9.38718 18.7369 9.26216 18.8619C9.13713 18.987 9.06689 19.1565 9.06689 19.3334C9.06689 19.5102 9.13713 19.6797 9.26216 19.8048C9.38718 19.9298 9.55675 20 9.73356 20H13.7336C13.9104 20 14.0799 19.9298 14.205 19.8048C14.33 19.6797 14.4002 19.5102 14.4002 19.3334Z" fill="#005D4A"/>
<path d="M15.0265 16H11.0265C10.8497 16 10.6801 16.0702 10.5551 16.1953C10.4301 16.3203 10.3599 16.4899 10.3599 16.6667C10.3599 16.8435 10.4301 17.013 10.5551 17.1381C10.6801 17.2631 10.8497 17.3333 11.0265 17.3333H15.0265C15.2033 17.3333 15.3729 17.2631 15.4979 17.1381C15.623 17.013 15.6932 16.8435 15.6932 16.6667C15.6932 16.4899 15.623 16.3203 15.4979 16.1953C15.3729 16.0702 15.2033 16 15.0265 16Z" fill="#005D4A"/>
<path d="M14.6667 21.3333H10.6667C10.4899 21.3333 10.3203 21.4036 10.1953 21.5286C10.0702 21.6536 10 21.8232 10 22C10 22.1768 10.0702 22.3464 10.1953 22.4714C10.3203 22.5964 10.4899 22.6666 10.6667 22.6666H14.6667C14.8435 22.6666 15.013 22.5964 15.1381 22.4714C15.2631 22.3464 15.3333 22.1768 15.3333 22C15.3333 21.8232 15.2631 21.6536 15.1381 21.5286C15.013 21.4036 14.8435 21.3333 14.6667 21.3333Z" fill="#005D4A"/>
<path d="M21.8001 21.3333H17.1335C16.9567 21.3333 16.7871 21.4036 16.6621 21.5286C16.537 21.6536 16.4668 21.8232 16.4668 22C16.4668 22.1768 16.537 22.3464 16.6621 22.4714C16.7871 22.5964 16.9567 22.6666 17.1335 22.6666H21.8001C21.9769 22.6666 22.1465 22.5964 22.2715 22.4714C22.3966 22.3464 22.4668 22.1768 22.4668 22C22.4668 21.8232 22.3966 21.6536 22.2715 21.5286C22.1465 21.4036 21.9769 21.3333 21.8001 21.3333Z" fill="#005D4A"/>
<path d="M22.4666 18.6667H17.8C17.6232 18.6667 17.4536 18.7369 17.3286 18.8619C17.2035 18.987 17.1333 19.1565 17.1333 19.3334C17.1333 19.5102 17.2035 19.6797 17.3286 19.8048C17.4536 19.9298 17.6232 20 17.8 20H22.4666C22.6434 20 22.813 19.9298 22.938 19.8048C23.0631 19.6797 23.1333 19.5102 23.1333 19.3334C23.1333 19.1565 23.0631 18.987 22.938 18.8619C22.813 18.7369 22.6434 18.6667 22.4666 18.6667Z" fill="#005D4A"/>
<path d="M22.4934 17.3333C22.298 14.986 21.6601 12.6968 20.6134 10.5866C19.6107 8.6798 18.1659 7.04077 16.4 5.80665L18 2.27998C18.0516 2.17458 18.0745 2.05744 18.0663 1.94038C18.0581 1.82332 18.0191 1.7105 17.9534 1.61332C17.8927 1.52806 17.8128 1.45829 17.7201 1.40964C17.6275 1.361 17.5247 1.33485 17.42 1.33332H6.53336C6.42129 1.33304 6.31096 1.36102 6.21256 1.41467C6.11416 1.46832 6.03088 1.54591 5.97041 1.64027C5.90994 1.73463 5.87424 1.84271 5.86659 1.95453C5.85895 2.06634 5.87962 2.17827 5.9267 2.27998L7.56003 5.81998C5.80701 7.05527 4.37215 8.68891 3.37336 10.5866C1.94003 13.2533 1.49336 16.5133 1.37336 18.7733C1.35371 19.1042 1.4028 19.4355 1.51754 19.7464C1.63228 20.0574 1.81018 20.3412 2.04003 20.58C2.2816 20.8146 2.56764 20.9986 2.88134 21.1211C3.19503 21.2436 3.53005 21.3021 3.8667 21.2933H8.00003V20H3.81336C3.66249 19.9995 3.51326 19.9686 3.37464 19.909C3.23602 19.8494 3.11087 19.7625 3.0067 19.6533C2.90237 19.545 2.82179 19.4162 2.77013 19.275C2.71847 19.1338 2.69687 18.9833 2.7067 18.8333C2.80003 17.0933 3.1667 13.78 4.5467 11.2C5.51952 9.35138 6.95805 7.78876 8.72003 6.66665H9.38669C8.93493 7.29162 8.51871 7.94154 8.14003 8.61331C7.75434 9.32814 7.42662 10.0727 7.16003 10.84L8.07336 11.4533C8.3432 10.6573 8.67534 9.88381 9.0667 9.13998C9.54727 8.27509 10.0933 7.44823 10.7 6.66665H11.3667C11.8139 7.73557 12.1296 8.85489 12.3067 9.99998C12.4515 10.85 12.5229 11.711 12.52 12.5733L13.5734 11.8333C13.544 11.1629 13.4728 10.4949 13.36 9.83331C13.1812 8.7521 12.8953 7.69134 12.5067 6.66665H13.0267L13.6334 5.33331H8.80669L7.57336 2.66665H16.38L14.7134 6.31331C14.9991 6.46634 15.2731 6.64014 15.5334 6.83331C17.1668 7.96025 18.5064 9.46218 19.44 11.2133C20.3751 13.1334 20.9556 15.2068 21.1534 17.3333H22.4934Z" fill="#005D4A"/>
</svg>
