<svg width="24" height="20" viewBox="0 0 24 20" fill="none" xmlns="http://www.w3.org/2000/svg">
<path d="M0 13.376C0 10.56 0.896 7.97867 2.688 5.632C4.48 3.28533 6.69867 1.408 9.344 0L10.496 2.048C9.216 2.98667 8.064 3.98933 7.04 5.056C6.016 6.12267 5.14133 7.38133 4.416 8.832L6.784 10.752C7.76533 11.52 8.42667 12.288 8.768 13.056C9.10933 13.824 9.28 14.6347 9.28 15.488C9.28 16.8107 8.87467 17.856 8.064 18.624C7.25333 19.392 6.22933 19.776 4.992 19.776C4.18133 19.776 3.456 19.6267 2.816 19.328C2.176 19.0293 1.6 18.6667 1.088 18.24C0.362667 16.704 0 15.0827 0 13.376ZM13.312 13.376C13.312 10.56 14.208 7.97867 16 5.632C17.792 3.28533 20.0107 1.408 22.656 0L23.808 2.048C22.528 2.98667 21.376 3.98933 20.352 5.056C19.328 6.12267 18.4533 7.38133 17.728 8.832L20.096 10.752C21.0773 11.52 21.7387 12.288 22.08 13.056C22.4213 13.824 22.592 14.6347 22.592 15.488C22.592 16.8107 22.1867 17.856 21.376 18.624C20.5653 19.392 19.5413 19.776 18.304 19.776C17.4933 19.776 16.768 19.6267 16.128 19.328C15.488 19.0293 14.912 18.6667 14.4 18.24C13.6747 16.704 13.312 15.0827 13.312 13.376Z" fill="#92B231"/>
</svg>
