<svg width="24" height="21" viewBox="0 0 24 21" fill="none" xmlns="http://www.w3.org/2000/svg">
<path d="M10.688 7.176C10.688 9.992 9.79202 12.5733 8.00002 14.92C6.20802 17.2667 3.98935 19.144 1.34402 20.552L0.192017 18.504C1.47202 17.5653 2.62402 16.5627 3.64802 15.496C4.71468 14.4293 5.58935 13.1707 6.27202 11.72L3.90402 9.8C2.96535 9.032 2.30402 8.264 1.92002 7.496C1.57868 6.68534 1.40802 5.87467 1.40802 5.064C1.40802 3.69867 1.81335 2.65334 2.62402 1.928C3.47735 1.16 4.50135 0.776001 5.69602 0.776001C6.50668 0.776001 7.23202 0.925334 7.87202 1.224C8.51202 1.48 9.08802 1.84267 9.60002 2.312C10.3254 3.848 10.688 5.46934 10.688 7.176ZM24 7.176C24 9.992 23.104 12.5733 21.312 14.92C19.52 17.2667 17.3014 19.144 14.656 20.552L13.504 18.504C14.784 17.5653 15.936 16.5627 16.96 15.496C18.0267 14.4293 18.9014 13.1707 19.584 11.72L17.216 9.8C16.2774 9.032 15.616 8.264 15.232 7.496C14.8907 6.68534 14.72 5.87467 14.72 5.064C14.72 3.69867 15.1254 2.65334 15.936 1.928C16.7894 1.16 17.8134 0.776001 19.008 0.776001C19.8187 0.776001 20.544 0.925334 21.184 1.224C21.824 1.48 22.4 1.84267 22.912 2.312C23.6374 3.848 24 5.46934 24 7.176Z" fill="#92B231"/>
</svg>
