<svg width="24" height="25" viewBox="0 0 24 25" fill="none" xmlns="http://www.w3.org/2000/svg">
<path d="M14.4 19.8334C14.4 19.6565 14.3297 19.487 14.2047 19.3619C14.0797 19.2369 13.9101 19.1667 13.7333 19.1667H9.73332C9.55651 19.1667 9.38694 19.2369 9.26191 19.3619C9.13689 19.487 9.06665 19.6565 9.06665 19.8334C9.06665 20.0102 9.13689 20.1797 9.26191 20.3048C9.38694 20.4298 9.55651 20.5 9.73332 20.5H13.7333C13.9101 20.5 14.0797 20.4298 14.2047 20.3048C14.3297 20.1797 14.4 20.0102 14.4 19.8334Z" fill="#F7F4EF"/>
<path d="M15.0267 16.5H11.0267C10.8498 16.5 10.6803 16.5702 10.5552 16.6953C10.4302 16.8203 10.36 16.9899 10.36 17.1667C10.36 17.3435 10.4302 17.513 10.5552 17.6381C10.6803 17.7631 10.8498 17.8333 11.0267 17.8333H15.0267C15.2035 17.8333 15.373 17.7631 15.4981 17.6381C15.6231 17.513 15.6933 17.3435 15.6933 17.1667C15.6933 16.9899 15.6231 16.8203 15.4981 16.6953C15.373 16.5702 15.2035 16.5 15.0267 16.5Z" fill="#F7F4EF"/>
<path d="M14.6667 21.8333H10.6667C10.4899 21.8333 10.3203 21.9036 10.1953 22.0286C10.0702 22.1536 10 22.3232 10 22.5C10 22.6768 10.0702 22.8464 10.1953 22.9714C10.3203 23.0964 10.4899 23.1666 10.6667 23.1666H14.6667C14.8435 23.1666 15.013 23.0964 15.1381 22.9714C15.2631 22.8464 15.3333 22.6768 15.3333 22.5C15.3333 22.3232 15.2631 22.1536 15.1381 22.0286C15.013 21.9036 14.8435 21.8333 14.6667 21.8333Z" fill="#F7F4EF"/>
<path d="M21.8 21.8333H17.1333C16.9565 21.8333 16.787 21.9036 16.6619 22.0286C16.5369 22.1536 16.4667 22.3232 16.4667 22.5C16.4667 22.6768 16.5369 22.8464 16.6619 22.9714C16.787 23.0964 16.9565 23.1666 17.1333 23.1666H21.8C21.9768 23.1666 22.1464 23.0964 22.2714 22.9714C22.3964 22.8464 22.4667 22.6768 22.4667 22.5C22.4667 22.3232 22.3964 22.1536 22.2714 22.0286C22.1464 21.9036 21.9768 21.8333 21.8 21.8333Z" fill="#F7F4EF"/>
<path d="M22.4667 19.1667H17.8C17.6232 19.1667 17.4536 19.2369 17.3286 19.3619C17.2036 19.487 17.1334 19.6565 17.1334 19.8334C17.1334 20.0102 17.2036 20.1797 17.3286 20.3048C17.4536 20.4298 17.6232 20.5 17.8 20.5H22.4667C22.6435 20.5 22.8131 20.4298 22.9381 20.3048C23.0631 20.1797 23.1334 20.0102 23.1334 19.8334C23.1334 19.6565 23.0631 19.487 22.9381 19.3619C22.8131 19.2369 22.6435 19.1667 22.4667 19.1667Z" fill="#F7F4EF"/>
<path d="M22.4934 17.8333C22.298 15.486 21.6601 13.1968 20.6134 11.0866C19.6107 9.1798 18.1659 7.54077 16.4 6.30665L18 2.77998C18.0516 2.67458 18.0745 2.55744 18.0663 2.44038C18.0581 2.32332 18.0191 2.2105 17.9534 2.11332C17.8927 2.02806 17.8128 1.95829 17.7201 1.90964C17.6275 1.861 17.5247 1.83485 17.42 1.83332H6.53336C6.42129 1.83304 6.31096 1.86102 6.21256 1.91467C6.11416 1.96832 6.03088 2.04591 5.97041 2.14027C5.90994 2.23463 5.87424 2.34271 5.86659 2.45453C5.85895 2.56634 5.87962 2.67827 5.9267 2.77998L7.56003 6.31998C5.80701 7.55527 4.37215 9.18891 3.37336 11.0866C1.94003 13.7533 1.49336 17.0133 1.37336 19.2733C1.35371 19.6042 1.4028 19.9355 1.51754 20.2464C1.63228 20.5574 1.81018 20.8412 2.04003 21.08C2.2816 21.3146 2.56764 21.4986 2.88134 21.6211C3.19503 21.7436 3.53005 21.8021 3.8667 21.7933H8.00003V20.5H3.81336C3.66249 20.4995 3.51326 20.4686 3.37464 20.409C3.23602 20.3494 3.11087 20.2625 3.0067 20.1533C2.90237 20.045 2.82179 19.9162 2.77013 19.775C2.71847 19.6338 2.69687 19.4833 2.7067 19.3333C2.80003 17.5933 3.1667 14.28 4.5467 11.7C5.51952 9.85138 6.95805 8.28876 8.72003 7.16665H9.38669C8.93493 7.79162 8.51871 8.44154 8.14003 9.11331C7.75434 9.82814 7.42662 10.5727 7.16003 11.34L8.07336 11.9533C8.3432 11.1573 8.67534 10.3838 9.0667 9.63998C9.54727 8.77509 10.0933 7.94823 10.7 7.16665H11.3667C11.8139 8.23557 12.1296 9.35489 12.3067 10.5C12.4515 11.35 12.5229 12.211 12.52 13.0733L13.5734 12.3333C13.544 11.6629 13.4728 10.9949 13.36 10.3333C13.1812 9.2521 12.8953 8.19134 12.5067 7.16665H13.0267L13.6334 5.83331H8.80669L7.57336 3.16665H16.38L14.7134 6.81331C14.9991 6.96634 15.2731 7.14014 15.5334 7.33331C17.1668 8.46025 18.5064 9.96218 19.44 11.7133C20.3751 13.6334 20.9556 15.7068 21.1534 17.8333H22.4934Z" fill="#F7F4EF"/>
</svg>
