<svg xmlns="http://www.w3.org/2000/svg" width="15" height="17" fill="none"><rect id="backgroundrect" width="100%" height="100%" x="0" y="0" fill="none" stroke="none"/>


<g class="currentLayer" style=""><title>Layer 1</title><path d="M14.381990027999876,3.113892061767578 C13.185990027999878,2.794692061767578 12.017590027999878,2.3799320617675783 10.888090027999878,1.8736120617675782 C9.776790027999878,1.391542061767578 8.703990027999877,0.8251720617675784 7.679190027999878,0.179444061767578 L7.388890027999878,6.176757816334089e-8 L7.103890027999878,0.1847220617675781 C6.0790300279998775,0.8304520617675784 5.006270027999878,1.396822061767578 3.8950000279998775,1.8788920617675782 C2.7636000279998783,2.383682061767578 1.5934400279998782,2.796672061767578 0.3958400279998777,3.113892061767578 L2.799987797175163e-8,3.2141620617675777 V7.615832061767579 C2.799987797175163e-8,14.682732061767577 7.140840027999879,17.32693206176758 7.209450027999878,17.353332061767578 L7.388890027999878,17.41663206176758 L7.568290027999877,17.353332061767578 C7.642190027999877,17.353332061767578 14.777790027999878,14.688032061767577 14.777790027999878,7.615832061767579 V3.2141620617675777 L14.381990027999876,3.113892061767578 zM13.72219002799988,7.615832061767579 C13.72219002799988,13.421432061767579 8.444490027999878,15.854432061767579 7.388890027999878,16.28723206176758 C6.333340027999878,15.854432061767579 1.0555600279998782,13.416132061767579 1.0555600279998782,7.615832061767579 V4.032222061767579 C2.168890027999878,3.712162061767578 3.2587200279998783,3.3153720617675777 4.317230027999878,2.844722061767578 C5.375800027999878,2.387132061767578 6.402050027999877,1.8581420617675781 7.388890027999878,1.261392061767578 C8.375690027999878,1.8581420617675781 9.401990027999878,2.387132061767578 10.460590027999878,2.844722061767578 C11.519090027999878,3.3153720617675777 12.608890027999879,3.712162061767578 13.72219002799988,4.032222061767579 V7.615832061767579 z" fill="#201F21" id="svg_1" class=""/><path d="M3.631120027999878,8.111942061767579 C3.530150027999878,8.025482061767578 3.4002800279998775,7.980302061767578 3.267450027999878,7.985432061767579 C3.134620027999878,7.990562061767578 3.0086200279998785,8.045622061767578 2.914630027999878,8.139622061767579 C2.8206300279998775,8.233612061767579 2.7655700279998783,8.359612061767578 2.760440027999878,8.492442061767578 C2.7553100279998777,8.625272061767578 2.800490027999878,8.755142061767579 2.8869500279998777,8.856112061767579 L6.053620027999878,12.022732061767577 L11.822190027999879,6.475832061767578 C11.922990027999878,6.3778520617675785 11.980790027999879,6.2438420617675785 11.982690027999878,6.103292061767578 C11.984690027999878,5.962752061767578 11.930790027999878,5.827172061767579 11.832790027999877,5.726392061767578 C11.734790027999878,5.625602061767578 11.600790027999878,5.567872061767578 11.460290027999879,5.5658920617675784 C11.319690027999878,5.563912061767578 11.184090027999877,5.617852061767578 11.083390027999878,5.715832061767578 L6.0852900279998785,10.566132061767577 L3.631120027999878,8.111942061767579 z" fill="#201F21" id="svg_2" class=""/></g></svg>