<svg width="24" height="24" viewBox="0 0 24 24" fill="none" xmlns="http://www.w3.org/2000/svg">
<path d="M12.0002 1.33333C11.0423 1.33599 10.0892 1.4683 9.16683 1.72667L9.68016 2.96667C11.6739 2.43876 13.7861 2.5827 15.6898 3.37621C17.5936 4.16972 19.1827 5.56856 20.2113 7.35624C21.2399 9.14393 21.6506 11.2208 21.3799 13.2654C21.1091 15.3101 20.1721 17.2085 18.7137 18.6669C17.2553 20.1253 15.3569 21.0623 13.3123 21.333C11.2676 21.6038 9.19075 21.1931 7.40307 20.1645C5.61538 19.1359 4.21655 17.5467 3.42304 15.643C2.62953 13.7393 2.48559 11.6271 3.01349 9.63333L1.77349 9.11333C1.16837 11.266 1.25506 13.5544 2.02131 15.6551C2.78756 17.7558 4.19461 19.5626 6.04362 20.8201C7.89263 22.0776 10.0901 22.7222 12.3254 22.6628C14.5607 22.6035 16.7208 21.8431 18.5004 20.4892C20.2801 19.1353 21.5893 17.2564 22.2429 15.118C22.8966 12.9796 22.8617 10.6898 22.1431 8.5723C21.4246 6.4548 20.0587 4.61666 18.2386 3.31767C16.4185 2.01868 14.2362 1.32453 12.0002 1.33333Z" fill="#005D4A"/>
<path d="M4.96644 10.4667C4.63369 11.987 4.80209 13.5743 5.44644 14.991C6.09079 16.4077 7.17646 17.5778 8.54108 18.3262C9.9057 19.0746 11.4759 19.3611 13.0169 19.1429C14.5579 18.9246 15.9869 18.2134 17.09 17.1156C18.1932 16.0177 18.9113 14.5922 19.137 13.0523C19.3626 11.5124 19.0837 9.94078 18.3419 8.57256C17.6001 7.20434 16.4353 6.11303 15.0217 5.46185C13.6082 4.81066 12.0217 4.6346 10.4998 4.95999L10.9131 5.99999C12.208 5.75755 13.5465 5.93664 14.7321 6.51095C15.9177 7.08526 16.888 8.02455 17.5005 9.19091C18.113 10.3573 18.3354 11.6893 18.1351 12.9914C17.9348 14.2934 17.3223 15.497 16.3876 16.4254C15.4529 17.3537 14.2452 17.958 12.9418 18.1494C11.6384 18.3408 10.3079 18.1094 9.14577 17.489C7.98361 16.8686 7.05095 15.8919 6.48472 14.7024C5.91849 13.5129 5.74852 12.1732 5.99977 10.88L4.96644 10.4667Z" fill="#005D4A"/>
<path d="M11.9999 14.7267C11.3317 14.7168 10.6904 14.4612 10.1986 14.0087C9.70673 13.5562 9.3987 12.9385 9.33325 12.2734L8.24658 11.82V12C8.24662 12.752 8.47015 13.4869 8.88876 14.1116C9.30737 14.7362 9.90219 15.2224 10.5977 15.5083C11.2931 15.7942 12.0579 15.8669 12.7948 15.7173C13.5317 15.5676 14.2075 15.2024 14.7364 14.6679C15.2653 14.1333 15.6234 13.4537 15.7652 12.7152C15.907 11.9768 15.8261 11.2129 15.5329 10.5204C15.2396 9.82804 14.7472 9.23842 14.1182 8.82645C13.4891 8.41448 12.7518 8.19876 11.9999 8.20669H11.8399L12.2866 9.33336C12.9529 9.43441 13.5578 9.77981 13.9834 10.3023C14.4091 10.8248 14.625 11.487 14.5893 12.16C14.5535 12.833 14.2686 13.4686 13.7899 13.9431C13.3113 14.4175 12.6732 14.6968 11.9999 14.7267Z" fill="#005D4A"/>
<path d="M5.4667 8.89336C5.52825 8.95617 5.61212 8.99211 5.70004 8.99336H8.13337L11.7134 12.5734C11.8389 12.6998 12.0095 12.7712 12.1877 12.7718C12.3658 12.7724 12.537 12.7022 12.6634 12.5767C12.7898 12.4512 12.8612 12.2805 12.8618 12.1024C12.8624 11.9242 12.7922 11.7531 12.6667 11.6267L9.02004 8.00003V5.67336C9.01879 5.58544 8.98284 5.50157 8.92004 5.44003L5.19337 1.71336C5.14678 1.66768 5.08781 1.63668 5.02376 1.6242C4.95972 1.61172 4.89342 1.61831 4.83309 1.64315C4.77275 1.66799 4.72104 1.71 4.68435 1.76395C4.64767 1.81791 4.62762 1.88145 4.6267 1.94669V4.61336H2.00004C1.9348 4.61428 1.87126 4.63432 1.8173 4.67101C1.76334 4.70769 1.72134 4.75941 1.69649 4.81974C1.67165 4.88008 1.66506 4.94638 1.67754 5.01042C1.69002 5.07446 1.72102 5.13344 1.7667 5.18003L5.4667 8.89336Z" fill="#005D4A"/>
</svg>
