<svg width="24" height="25" viewBox="0 0 24 25" fill="none" xmlns="http://www.w3.org/2000/svg">
<path d="M12 1.83333C11.0421 1.83599 10.089 1.9683 9.16667 2.22667L9.68001 3.46667C11.6738 2.93876 13.786 3.0827 15.6897 3.87621C17.5934 4.66972 19.1825 6.06856 20.2111 7.85624C21.2397 9.64393 21.6504 11.7208 21.3797 13.7654C21.109 15.8101 20.1719 17.7085 18.7135 19.1669C17.2551 20.6253 15.3567 21.5623 13.3121 21.833C11.2675 22.1038 9.1906 21.6931 7.40292 20.6645C5.61523 19.6359 4.21639 18.0467 3.42289 16.143C2.62938 14.2393 2.48544 12.1271 3.01334 10.1333L1.77334 9.61333C1.16822 11.766 1.2549 14.0544 2.02115 16.1551C2.7874 18.2558 4.19446 20.0626 6.04347 21.3201C7.89247 22.5776 10.0899 23.2222 12.3252 23.1628C14.5605 23.1035 16.7206 22.3431 18.5003 20.9892C20.2799 19.6353 21.5891 17.7564 22.2428 15.618C22.8964 13.4796 22.8615 11.1898 22.143 9.0723C21.4244 6.9548 20.0586 5.11666 18.2385 3.81767C16.4184 2.51868 14.2361 1.82453 12 1.83333Z" fill="#F7F4EF"/>
<path d="M4.96668 10.9667C4.63394 12.487 4.80234 14.0743 5.44668 15.491C6.09103 16.9077 7.17671 18.0778 8.54133 18.8262C9.90595 19.5746 11.4762 19.8611 13.0172 19.6429C14.5582 19.4246 15.9871 18.7134 17.0903 17.6156C18.1935 16.5177 18.9116 15.0922 19.1372 13.5523C19.3629 12.0124 19.084 10.4408 18.3422 9.07256C17.6004 7.70434 16.4356 6.61303 15.022 5.96185C13.6084 5.31066 12.022 5.1346 10.5 5.45999L10.9133 6.49999C12.2082 6.25755 13.5468 6.43664 14.7324 7.01095C15.918 7.58526 16.8883 8.52455 17.5007 9.69091C18.1132 10.8573 18.3356 12.1893 18.1353 13.4914C17.935 14.7934 17.3226 15.997 16.3879 16.9254C15.4532 17.8537 14.2455 18.458 12.942 18.6494C11.6386 18.8408 10.3082 18.6094 9.14602 17.989C7.98385 17.3686 7.05119 16.3919 6.48496 15.2024C5.91874 14.0129 5.74877 12.6732 6.00001 11.38L4.96668 10.9667Z" fill="#F7F4EF"/>
<path d="M12 15.2267C11.3317 15.2168 10.6905 14.9612 10.1987 14.5087C9.70683 14.0562 9.39879 13.4385 9.33334 12.7734L8.24667 12.32V12.5C8.24672 13.252 8.47024 13.9869 8.88885 14.6116C9.30746 15.2362 9.90228 15.7224 10.5978 16.0083C11.2932 16.2942 12.058 16.3669 12.7949 16.2173C13.5318 16.0676 14.2076 15.7024 14.7365 15.1679C15.2654 14.6333 15.6234 13.9537 15.7653 13.2152C15.9071 12.4768 15.8262 11.7129 15.533 11.0204C15.2397 10.328 14.7473 9.73842 14.1183 9.32645C13.4892 8.91448 12.7519 8.69876 12 8.70669H11.84L12.2867 9.83336C12.953 9.93441 13.5579 10.2798 13.9835 10.8023C14.4092 11.3248 14.6251 11.987 14.5894 12.66C14.5536 13.333 14.2686 13.9686 13.79 14.4431C13.3114 14.9175 12.6733 15.1968 12 15.2267Z" fill="#F7F4EF"/>
<path d="M5.46667 9.39336C5.52822 9.45617 5.61208 9.49211 5.70001 9.49336H8.13334L11.7133 13.0734C11.8389 13.1998 12.0095 13.2712 12.1877 13.2718C12.3658 13.2724 12.5369 13.2022 12.6633 13.0767C12.7898 12.9512 12.8611 12.7805 12.8618 12.6024C12.8624 12.4242 12.7922 12.2531 12.6667 12.1267L9.02001 8.50003V6.17336C9.01876 6.08544 8.98281 6.00157 8.92001 5.94003L5.19334 2.21336C5.14675 2.16768 5.08778 2.13668 5.02373 2.1242C4.95969 2.11172 4.89339 2.11831 4.83306 2.14315C4.77272 2.16799 4.72101 2.21 4.68432 2.26395C4.64763 2.31791 4.62759 2.38145 4.62667 2.44669V5.11336H2.00001C1.93477 5.11428 1.87123 5.13432 1.81727 5.17101C1.76331 5.20769 1.72131 5.25941 1.69646 5.31974C1.67162 5.38008 1.66503 5.44638 1.67751 5.51042C1.68999 5.57446 1.72099 5.63344 1.76667 5.68003L5.46667 9.39336Z" fill="#F7F4EF"/>
</svg>
