<svg width="23" height="17" viewBox="0 0 23 17" fill="none" xmlns="http://www.w3.org/2000/svg">
<g clip-path="url(#clip0_1_27)">
<path d="M20.8 9.29998C19.5333 7.33331 17.9458 5.86248 16.0375 4.88748C16.5458 5.75414 16.8 6.69164 16.8 7.69998C16.8 9.24164 16.2521 10.5604 15.1563 11.6562C14.0604 12.7521 12.7417 13.3 11.2 13.3C9.65833 13.3 8.33958 12.7521 7.24375 11.6562C6.14792 10.5604 5.6 9.24164 5.6 7.69998C5.6 6.69164 5.85417 5.75414 6.3625 4.88748C4.45417 5.86248 2.86667 7.33331 1.6 9.29998C2.70833 11.0083 4.09792 12.3687 5.76875 13.3812C7.43958 14.3937 9.25 14.9 11.2 14.9C13.15 14.9 14.9604 14.3937 16.6313 13.3812C18.3021 12.3687 19.6917 11.0083 20.8 9.29998ZM11.8 4.49998C11.8 4.33331 11.7417 4.19164 11.625 4.07498C11.5083 3.95831 11.3667 3.89998 11.2 3.89998C10.1583 3.89998 9.26458 4.27289 8.51875 5.01873C7.77292 5.76456 7.4 6.65831 7.4 7.69998C7.4 7.86664 7.45833 8.00831 7.575 8.12498C7.69167 8.24164 7.83333 8.29998 8 8.29998C8.16667 8.29998 8.30833 8.24164 8.425 8.12498C8.54167 8.00831 8.6 7.86664 8.6 7.69998C8.6 6.98331 8.85417 6.37081 9.3625 5.86248C9.87083 5.35414 10.4833 5.09998 11.2 5.09998C11.3667 5.09998 11.5083 5.04164 11.625 4.92498C11.7417 4.80831 11.8 4.66664 11.8 4.49998ZM22.4 9.29998C22.4 9.58331 22.3167 9.87081 22.15 10.1625C20.9833 12.0791 19.4146 13.6146 17.4438 14.7687C15.4729 15.9229 13.3917 16.5 11.2 16.5C9.00833 16.5 6.92708 15.9208 4.95625 14.7625C2.98542 13.6041 1.41667 12.0708 0.25 10.1625C0.0833333 9.87081 0 9.58331 0 9.29998C0 9.01664 0.0833333 8.72914 0.25 8.43748C1.41667 6.52914 2.98542 4.99581 4.95625 3.83748C6.92708 2.67914 9.00833 2.09998 11.2 2.09998C13.3917 2.09998 15.4729 2.67914 17.4438 3.83748C19.4146 4.99581 20.9833 6.52914 22.15 8.43748C22.3167 8.72914 22.4 9.01664 22.4 9.29998Z" fill="#F7F4EF"/>
</g>
<defs>
<clipPath id="clip0_1_27">
<rect width="22.4" height="16" fill="white" transform="translate(0 0.5)"/>
</clipPath>
</defs>
</svg>
