<svg xmlns="http://www.w3.org/2000/svg" width="16" height="16" fill="none"><rect id="backgroundrect" width="100%" height="100%" x="0" y="0" fill="none" stroke="none"/>


<g class="currentLayer" style=""><title>Layer 1</title><path d="M7.999999046325684,0 C6.417799046325683,0 4.871039046325684,0.4691900000000002 3.5554390463256835,1.3482400000000005 C2.2398490463256833,2.22729 1.214469046325684,3.4767200000000003 0.6089690463256838,4.93853 C0.003469046325683678,6.4003 -0.1549609536743164,8.0089 0.15371904632568345,9.5607 C0.4623990463256833,11.1126 1.2243290463256837,12.538 2.343149046325683,13.6569 C3.4619690463256836,14.7757 4.887429046325684,15.537600000000001 6.439299046325683,15.8463 C7.991099046325683,16.155 9.599699046325684,15.996500000000001 11.061499046325684,15.391000000000002 C12.523299046325683,14.785499999999999 13.772699046325684,13.760200000000001 14.651799046325685,12.444600000000001 C15.530799046325683,11.129 15.999999046325684,9.5822 15.999999046325684,8 C15.999999046325684,5.878299999999999 15.157099046325683,3.8434399999999993 13.656899046325684,2.3431499999999996 C12.156599046325685,0.8428500000000003 10.121699046325684,0 7.999999046325684,0 zM7.999999046325684,14.666699999999999 C6.681499046325683,14.666699999999999 5.392529046325684,14.2757 4.296199046325684,13.543099999999999 C3.1998690463256834,12.8106 2.3453890463256837,11.769400000000001 1.8408090463256839,10.5512 C1.3362190463256836,9.333 1.2041990463256838,7.9925999999999995 1.4614390463256832,6.699400000000001 C1.718669046325684,5.4061900000000005 2.3536090463256834,4.218299999999999 3.285959046325684,3.2859499999999997 C4.218309046325684,2.3536 5.406199046325684,1.7186700000000004 6.699399046325684,1.46143 C7.992599046325683,1.2042000000000002 9.333099046325684,1.33622 10.551199046325683,1.8407999999999998 C11.769399046325685,2.34539 12.810599046325684,3.1998700000000007 13.543099046325683,4.296200000000001 C14.275699046325684,5.392530000000001 14.666699046325682,6.6815 14.666699046325682,8 C14.666699046325682,8.8755 14.494199046325683,9.7424 14.159199046325682,10.5512 C13.824199046325685,11.3601 13.333099046325685,12.094999999999999 12.713999046325682,12.713999999999999 C12.094999046325682,13.333100000000002 11.360099046325683,13.824200000000001 10.551199046325683,14.159199999999998 C9.742399046325684,14.4942 8.875499046325684,14.666699999999999 7.999999046325684,14.666699999999999 z" fill="#fff" id="svg_1" class=""/><path d="M6.893299046325684,11.826699999999999 L3.5599890463256836,8.4933 C3.4507790463256836,8.3658 3.393709046325684,8.2017 3.400189046325684,8.034 C3.4066690463256837,7.866199999999999 3.4762190463256832,7.707000000000001 3.5949490463256835,7.5883 C3.7136790463256837,7.4696 3.8728390463256837,7.4 4.040619046325684,7.3934999999999995 C4.208409046325684,7.3870000000000005 4.372459046325684,7.444100000000001 4.499989046325684,7.5533 L6.893299046325684,9.9467 L11.413299046325683,5.42666 C11.540899046325684,5.3174399999999995 11.704899046325684,5.26037 11.872699046325684,5.26685 C12.040499046325685,5.273339999999999 12.199599046325684,5.342890000000001 12.318399046325684,5.46162 C12.437099046325685,5.580399999999999 12.506699046325682,5.7395 12.513099046325685,5.907299999999999 C12.519599046325684,6.075100000000001 12.462499046325682,6.2391000000000005 12.353299046325684,6.3667 L6.893299046325684,11.826699999999999 z" fill="#fff" id="svg_2" class=""/></g></svg>