<svg width="23" height="23" viewBox="0 0 23 23" fill="none" xmlns="http://www.w3.org/2000/svg">
<path fill-rule="evenodd" clip-rule="evenodd" d="M0.666687 2.61388C0.666687 2.12641 0.860333 1.65891 1.20503 1.31422C1.54972 0.969527 2.01722 0.775881 2.50469 0.775881H20.8267C21.0683 0.775487 21.3075 0.822744 21.5308 0.914948C21.7541 1.00715 21.957 1.14249 22.1279 1.31322C22.2988 1.48394 22.4344 1.6867 22.5269 1.90989C22.6193 2.13308 22.6668 2.37231 22.6667 2.61388V20.9359C22.667 21.1775 22.6196 21.4168 22.5273 21.6401C22.4349 21.8634 22.2995 22.0663 22.1287 22.2372C21.9579 22.4081 21.7551 22.5436 21.5318 22.6361C21.3086 22.7285 21.0693 22.776 20.8277 22.7759H2.50469C2.26323 22.7759 2.02415 22.7283 1.80108 22.6359C1.57802 22.5434 1.37536 22.408 1.20467 22.2372C1.03398 22.0664 0.898619 21.8637 0.80631 21.6406C0.714 21.4174 0.666556 21.1783 0.666687 20.9369V2.61388ZM9.37469 9.16388H12.3537V10.6599C12.7837 9.79988 13.8837 9.02588 15.5367 9.02588C18.7057 9.02588 19.4567 10.7389 19.4567 13.8819V19.7039H16.2497V14.5979C16.2497 12.8079 15.8197 11.7979 14.7277 11.7979C13.2127 11.7979 12.5827 12.8869 12.5827 14.5979V19.7039H9.37469V9.16388ZM3.87469 19.5669H7.08269V9.02588H3.87469V19.5659V19.5669ZM7.54169 5.58788C7.54774 5.86255 7.49886 6.13567 7.39793 6.3912C7.29699 6.64672 7.14604 6.87952 6.95392 7.07591C6.7618 7.27231 6.53239 7.42835 6.27914 7.53489C6.0259 7.64142 5.75393 7.6963 5.47919 7.6963C5.20445 7.6963 4.93248 7.64142 4.67923 7.53489C4.42599 7.42835 4.19658 7.27231 4.00446 7.07591C3.81234 6.87952 3.66138 6.64672 3.56045 6.3912C3.45952 6.13567 3.41064 5.86255 3.41669 5.58788C3.42856 5.04874 3.65107 4.53567 4.03657 4.15857C4.42207 3.78146 4.93991 3.5703 5.47919 3.5703C6.01846 3.5703 6.5363 3.78146 6.9218 4.15857C7.3073 4.53567 7.52982 5.04874 7.54169 5.58788Z" fill="#92B231"/>
</svg>
