<svg width="72" height="71" viewBox="0 0 72 71" fill="none" xmlns="http://www.w3.org/2000/svg">
<g clip-path="url(#clip0_21_1032)">
<path fill-rule="evenodd" clip-rule="evenodd" d="M32.1977 70.6166V69.1124H41.5922V70.6166H32.1977ZM25.1265 62.3616C25.1265 61.5794 24.6049 61.1334 23.6711 61.1334H22.7371V63.5985H23.6963C24.6133 63.5985 25.1265 63.1524 25.1265 62.3616ZM25.9003 62.3616C25.9003 63.5646 25.1433 64.2462 23.8137 64.2462H22.7371V66.038H21.9714V60.4856H23.7213C25.1094 60.4856 25.9003 61.1586 25.9003 62.3616ZM28.5325 63.3038C29.3149 63.3038 29.9041 62.9169 29.9041 62.2104C29.9041 61.4951 29.4494 61.1334 28.6084 61.1334H27.7332V63.3038H28.5325ZM31.1743 66.0465C31.1743 66.0465 30.9639 66.0886 30.7199 66.0886C29.1636 66.0886 29.6262 63.9011 28.1792 63.9011H27.7332V66.0381H26.9678V60.4854H28.642C29.9374 60.4854 30.6776 61.0071 30.6776 62.2104C30.6776 62.9842 30.1646 63.5226 29.4329 63.7663C30.1478 64.1703 30.1562 65.4745 30.9468 65.4745C31.048 65.4745 31.1155 65.4574 31.1155 65.4574L31.1743 66.0465ZM32.0817 66.038V60.4856H32.8471V66.038H32.0817ZM36.0181 64.5068C36.0772 64.6667 36.1361 64.8687 36.1949 65.0873H36.2117C36.2705 64.8687 36.3294 64.692 36.3969 64.5068L37.8439 60.4854H38.6348L36.565 66.0381H35.8161L33.7805 60.4854H34.5882L36.0181 64.5068ZM41.9903 64.0275L41.2415 62.0165C41.1826 61.8568 41.1238 61.6548 41.0647 61.4363H41.0482C40.9893 61.6548 40.9302 61.8568 40.8714 62.0165L40.1309 64.0275H41.9903ZM42.2259 64.6584H39.8953L39.3821 66.0381H38.5915L40.6778 60.4854H41.4435L43.5298 66.0381H42.7392L42.2259 64.6584ZM45.1103 61.1334H43.3269V60.4854H47.6595V61.1334H45.8757V66.0381H45.1103V61.1334ZM49.3326 61.1334V62.8326H51.7134V63.4806H49.3326V65.3901H52.0078V66.0381H48.567V60.4854H52.0078V61.1334H49.3326ZM0 0.280085H16.3748V2.72781H9.63399V21.2646H6.74054V2.72781H0V0.280085ZM26.3582 10.9307C29.315 10.9307 31.5405 9.46885 31.5405 6.79757C31.5405 4.09547 29.824 2.72775 26.6443 2.72775H23.3376V10.9307H26.3582ZM36.3421 21.2959C36.3421 21.2959 35.547 21.455 34.6245 21.455C28.7429 21.455 30.4914 13.1882 25.0222 13.1882H23.3376V21.2645H20.4441V0.280029H26.7714C31.6674 0.280029 34.4656 2.2512 34.4656 6.79757C34.4656 9.72296 32.5264 11.7577 29.7601 12.6797C32.4628 14.206 32.4942 19.1342 35.4829 19.1342C35.865 19.1342 36.1188 19.0703 36.1188 19.0703L36.3421 21.2959ZM43.3378 2.72781V9.15037H52.3358V11.5987H43.3378V18.8157H53.4486V21.2646H40.4443V0.280085H53.4486V2.72781H43.3378ZM61.6521 2.72781V9.15037H70.6501V11.5987H61.6521V18.8157H71.7626V21.2646H58.7586V0.280085H71.7626V2.72781H61.6521ZM12.6071 31.3138H5.86624V28.8655H22.2411V31.3138H15.5002V49.85H12.6071V31.3138ZM67.1789 35.9558C67.1789 32.999 65.2074 31.3139 61.678 31.3139H58.1492V40.6296H61.7733C65.2394 40.6296 67.1789 38.9445 67.1789 35.9558ZM70.1043 35.9558C70.1043 40.5022 67.2425 43.0776 62.2187 43.0776H58.1492V49.8498H55.2555V28.8653H61.8691C67.1156 28.8653 70.1043 31.4094 70.1043 35.9558Z" fill="#F7F4EF"/>
<path fill-rule="evenodd" clip-rule="evenodd" d="M35.379 55.4204C27.8066 54.6605 21.8949 48.2687 21.8949 40.4961C21.8949 32.2118 28.6106 25.4961 36.8949 25.4961C45.1792 25.4961 51.8949 32.2118 51.8949 40.4961C51.8949 48.3565 45.8488 54.8048 38.1534 55.444L38.16 55.5897H35.3708L35.379 55.4204ZM35.379 55.4204C35.8775 55.4705 36.3832 55.4961 36.8949 55.4961C37.3187 55.4961 37.7385 55.4785 38.1534 55.444L37.7208 45.8865C38.0037 45.8858 38.3482 45.887 38.7364 45.8901C39.0878 45.8937 39.9218 45.9296 40.2302 45.9441C40.5384 45.9582 41.3601 46.0352 41.6475 46.0669C41.9344 46.0988 42.4244 46.1758 42.4869 46.1789C42.5488 46.1823 42.6172 46.147 42.676 46.0388C42.7345 45.9296 42.7239 45.8514 42.7026 45.8083C42.6813 45.7657 42.5737 45.7601 42.4227 45.7366C42.2709 45.7136 41.2408 45.5976 40.8295 45.5662C40.4177 45.534 39.8293 45.5071 39.5811 45.4965C39.334 45.4858 38.052 45.4735 37.8436 45.4754C37.8163 45.4757 37.7673 45.4764 37.7023 45.4775L37.6826 45.0421C37.6955 45.0405 37.7069 45.0391 37.7164 45.0378C37.961 45.0084 38.9735 44.8989 39.1906 44.8759C39.4083 44.8529 40.8401 44.7081 40.9914 44.6944C41.1435 44.6801 42.1742 44.5804 42.3126 44.5663C42.4496 44.5518 42.9057 44.521 42.9858 44.5036C43.0489 44.4896 43.1315 44.384 43.1584 44.268C43.1856 44.1526 43.1444 44.1133 43.1072 44.1044C43.0696 44.0954 42.4098 44.092 42.1874 44.0881C41.9641 44.0848 40.8082 44.0539 40.5709 44.0455C40.3336 44.0363 39.2533 44.001 39.0981 43.9954C38.9492 43.99 37.9133 43.9555 37.6331 43.9479L37.6223 43.7094C37.6519 43.7076 37.6775 43.706 37.6985 43.7046C38.0002 43.6855 38.8379 43.6348 39.1306 43.6141C39.4223 43.5922 40.5796 43.4858 40.92 43.4432C41.2606 43.4001 42.1123 43.2813 42.216 43.2429C42.3191 43.2059 42.3821 43.0204 42.3928 42.956C42.4031 42.8919 42.3709 42.8437 42.332 42.842C42.2922 42.8403 41.8633 42.8778 41.5439 42.8935C41.3531 42.9036 40.4373 42.9294 40.1644 42.933C39.891 42.9364 38.9987 42.9305 38.7544 42.926C38.5837 42.9239 37.9794 42.9081 37.5856 42.8976L37.577 42.7094C37.7151 42.6996 37.8182 42.6923 37.859 42.689C38.0574 42.6733 39.364 42.5498 39.6402 42.5195C39.9162 42.4887 40.9659 42.3733 41.1805 42.3472C41.3943 42.3201 42.2496 42.2147 42.3109 42.1934C42.3709 42.1721 42.4351 42.0968 42.4776 41.9774C42.5211 41.8581 42.4709 41.7992 42.4351 41.7922C42.3998 41.7855 41.9344 41.7922 41.5764 41.7956C41.2172 41.7992 40.2599 41.7956 40.0414 41.7956C39.822 41.7956 38.6776 41.7869 38.4384 41.7833C38.3179 41.7816 37.9235 41.7743 37.5344 41.7671L37.5233 41.522C38.0299 41.5028 38.6776 41.4785 38.8432 41.4695C39.1071 41.4555 39.9915 41.416 40.242 41.3981C40.4939 41.3801 41.5551 41.3095 41.8809 41.277C42.2073 41.2451 43.0055 41.1574 43.1072 41.1241C43.2086 41.0899 43.2786 40.9406 43.2957 40.8672C43.3147 40.7946 43.2803 40.7321 43.2248 40.7209C43.1696 40.7108 42.0605 40.6318 41.8946 40.6243C41.7288 40.6176 40.6048 40.5744 40.4373 40.5716C40.2692 40.5677 39.1124 40.5607 38.89 40.5607C38.6915 40.5607 37.6965 40.5773 37.4801 40.5672L37.4795 40.5539C37.7637 40.5141 39.4357 40.3677 39.631 40.3447C39.845 40.3197 40.8382 40.1791 41.134 40.1259C41.4296 40.0721 42.2339 39.9385 42.3126 39.9009C42.3908 39.8634 42.4617 39.7513 42.4886 39.6516C42.5152 39.551 42.4692 39.514 42.4457 39.5051C42.4227 39.4966 42.0056 39.4995 41.7778 39.4995C41.5512 39.4995 39.5587 39.5129 39.2463 39.5207C38.995 39.5275 37.993 39.5408 37.434 39.5486L37.4171 39.1746C37.4233 39.1743 37.4292 39.174 37.4348 39.1736C37.6962 39.1591 38.5106 39.1109 38.8084 39.0868C39.1071 39.0627 39.5853 39.0162 39.8481 38.9814C40.1098 38.9467 40.6939 38.8444 40.7637 38.8142C40.8331 38.7828 40.9119 38.687 40.9483 38.5761C40.9839 38.4648 40.9306 38.4217 40.8903 38.4144C40.8508 38.406 40.4238 38.369 40.2568 38.355C40.0902 38.3421 39.373 38.2827 39.2007 38.2715C39.0281 38.2592 38.2708 38.206 38.0921 38.1948C37.9852 38.1887 37.6593 38.1721 37.371 38.1578L37.3653 38.0319C37.758 37.9966 38.3757 37.9309 38.7796 37.8717C39.2587 37.8011 40.0055 37.6709 40.365 37.5975C40.7247 37.5235 41.5481 37.3406 41.6299 37.3058C41.7111 37.2711 41.7918 37.1484 41.8184 37.0503C41.8456 36.9526 41.7994 36.9083 41.7422 36.9021C41.6842 36.8954 40.8295 36.8618 40.6003 36.859C40.3726 36.8567 39.645 36.859 39.4615 36.8635C39.2785 36.8674 38.2865 36.9021 38.1341 36.9083C38.0422 36.9127 37.659 36.9329 37.3164 36.9513L37.2965 36.511C37.3527 36.5014 37.3992 36.4934 37.432 36.4878C37.6674 36.4474 38.5776 36.3202 38.7701 36.2939C38.9628 36.2676 39.6408 36.1933 39.7968 36.1765C39.9529 36.1586 40.3796 36.1244 40.4121 36.1171C40.4443 36.1104 40.5603 36.0493 40.6166 35.8986C40.6726 35.747 40.6031 35.7162 40.5454 35.7101C40.4885 35.7028 40.0467 35.672 39.8293 35.6641C39.6114 35.6563 39.1729 35.6507 38.8166 35.6563C38.4613 35.6619 37.6416 35.7045 37.5043 35.7123C37.4659 35.7145 37.3751 35.7205 37.2611 35.7282L37.2498 35.4796C37.412 35.4487 37.5453 35.4232 37.5987 35.4128C37.773 35.3798 38.646 35.215 38.7289 35.1982C38.8118 35.1803 39.6156 35.0371 39.6433 35.0282C39.6722 35.0181 39.7352 34.9878 39.801 34.8567C39.8663 34.7259 39.824 34.6592 39.794 34.6373C39.7652 34.6155 39.4416 34.6037 39.3287 34.6015C39.2164 34.5987 38.881 34.5987 38.574 34.6172C38.2661 34.6362 37.7032 34.704 37.5758 34.7203C37.5341 34.7255 37.3934 34.7458 37.2178 34.7716L37.2049 34.4864C37.4384 34.44 37.6422 34.3993 37.7175 34.3832C37.9173 34.3418 38.881 34.1333 39.1018 34.0824C39.3222 34.0311 40.0462 33.8529 40.0733 33.8445C40.1019 33.8367 40.1792 33.803 40.2479 33.661C40.3227 33.5052 40.2692 33.4531 40.221 33.4397C40.1725 33.4262 39.5335 33.4285 39.3085 33.433C39.0847 33.4369 38.2072 33.4918 37.9279 33.5148C37.8638 33.5199 37.5084 33.5486 37.1637 33.5765L37.1562 33.4102C37.2202 33.4016 37.2692 33.395 37.2953 33.3915C37.4531 33.3702 38.3078 33.2657 38.456 33.2483C38.6042 33.231 39.5912 33.1251 39.6738 33.1161C39.7573 33.1066 39.8517 33.1161 39.9282 32.9306C40.0039 32.7443 39.9293 32.7085 39.8957 32.7001C39.8627 32.6922 38.4776 32.6967 38.3731 32.6978C38.2844 32.6983 37.3892 32.7163 37.1244 32.7088L37.1236 32.6906C37.3989 32.6634 38.369 32.6159 38.4815 32.6082C38.6129 32.5987 39.3668 32.5261 39.4534 32.5076C39.5399 32.4886 39.6327 32.3328 39.6408 32.2207C39.6467 32.1386 39.5881 32.1123 39.5587 32.1039C39.5298 32.0955 38.5866 31.9801 38.4286 31.9571C38.2708 31.9341 37.4418 31.8568 37.4385 31.8282C37.4368 31.8162 38.1484 31.7517 38.2543 31.7411C38.3596 31.7305 39.0376 31.7013 39.067 31.6924C39.0964 31.6828 39.1766 31.6374 39.2287 31.5103C39.2805 31.3833 39.2463 31.3267 39.222 31.3043C39.1979 31.2814 38.9253 31.2724 38.8407 31.2674C38.7572 31.2618 37.796 31.1923 37.6769 31.1839C37.5849 31.1783 37.218 31.1561 37.0534 31.1408L37.0523 31.1147C37.1709 31.0998 37.3863 31.0808 37.4402 31.076C37.515 31.0687 37.8103 31.0418 38.0173 31.0334C38.1859 31.0256 38.3095 31.0289 38.3666 31.0194C38.4479 31.0065 38.5322 30.8984 38.57 30.802C38.607 30.7054 38.5712 30.6561 38.5459 30.6331C38.5204 30.6107 38.1929 30.5625 38.0868 30.5479C37.982 30.5328 37.406 30.465 37.3158 30.4543C37.2777 30.4499 37.1559 30.4347 37.0207 30.4177L37.0095 30.1698C37.1542 30.1458 37.3213 30.117 37.4267 30.096C37.6074 30.0596 37.9839 29.9551 38.0467 29.9204C38.117 29.8817 38.2277 29.7282 38.2324 29.6413C38.2383 29.5542 38.2196 29.5357 38.0904 29.5155C37.9642 29.4962 37.183 29.45 36.9764 29.4386L36.9661 29.2117C37.1923 29.1471 37.5409 29.0453 37.5979 29.0155C37.6693 28.9779 37.7783 28.818 37.7912 28.7149C37.7996 28.6543 37.7595 28.6269 37.7352 28.6185C37.7111 28.6101 37.5987 28.6056 37.5119 28.5983C37.4256 28.5916 37.0261 28.5574 36.9611 28.5518C36.9552 28.5513 36.9467 28.5506 36.9362 28.5497L36.9186 28.1622C36.9378 28.1379 36.9464 28.1142 36.9412 28.0767C36.9373 28.0471 36.926 28.0229 36.9115 28.0037L36.88 27.3079C36.88 27.3079 36.88 27.2303 36.808 27.2331C36.741 27.2359 36.7404 27.3091 36.7404 27.3091L36.7069 28.0018C36.6289 28.0573 36.5092 28.1474 36.3406 28.2518C36.1677 28.3582 35.9147 28.4641 35.8679 28.4921C35.8214 28.521 35.7419 28.6577 35.729 28.7098C35.7166 28.7614 35.706 28.8471 35.7654 28.8653C35.8237 28.8832 35.9842 28.8866 36.0584 28.8916C36.1335 28.8972 36.6599 28.9062 36.658 28.9275C36.6563 28.9488 35.8716 29.113 35.7556 29.1449C35.6396 29.1768 35.5133 29.2015 35.4474 29.2752C35.3816 29.348 35.3121 29.4713 35.3314 29.5458C35.3508 29.6206 35.6348 29.68 35.8237 29.7226C36.0125 29.7652 36.6165 29.815 36.6165 29.8346C36.6165 29.8543 35.8808 29.9789 35.6365 30.0557C35.3922 30.1319 35.3197 30.1745 35.2519 30.2854C35.1838 30.3961 35.2054 30.4818 35.2373 30.5137C35.2695 30.5462 35.5317 30.6067 35.6844 30.6404C35.8333 30.673 36.5297 30.7717 36.5717 30.794L36.5715 30.7974C36.519 30.8198 35.517 30.9406 35.2519 30.9696C34.9784 31.0004 34.5938 31.011 34.5187 31.0217C34.4439 31.0329 34.3142 31.2052 34.3063 31.3032C34.2988 31.4013 34.3159 31.4248 34.4456 31.4282C34.5759 31.4321 35.3278 31.457 35.5401 31.4677C35.7525 31.4783 36.5353 31.4996 36.5336 31.5248C36.5313 31.5495 34.9574 31.624 34.8681 31.6369C34.7787 31.6492 34.6862 31.7915 34.6652 31.8512C34.6439 31.9095 34.6128 32.0215 34.7058 32.0361C34.7986 32.0501 34.9532 32.0484 35.0782 32.054C35.1724 32.0582 36.0152 32.1155 36.506 32.1504L36.4971 32.3342C36.1208 32.3578 35.2926 32.4137 35.121 32.4303C34.9179 32.4493 34.4167 32.4958 34.3688 32.5121C34.3212 32.5283 34.2458 32.5807 34.1982 32.7135C34.1481 32.8525 34.1946 32.899 34.2853 32.9186C34.4212 32.948 35.2561 32.9794 35.4662 32.9962C35.6705 33.0114 36.4204 33.0383 36.4623 33.0527L36.4621 33.0556C36.4233 33.0765 35.8218 33.1996 35.685 33.2186C35.5449 33.2377 34.8019 33.3467 34.5915 33.378C34.3811 33.4105 33.4101 33.5534 33.3376 33.5725C33.2639 33.5921 33.1714 33.7655 33.1608 33.7969C33.1501 33.8294 33.1272 33.9414 33.2238 33.9723C33.323 34.0025 33.8825 34.0577 33.8825 34.0577C34.2315 34.0936 34.9179 34.1081 35.4062 34.0936C35.6615 34.0856 36.0693 34.0585 36.4148 34.0328L36.4038 34.259C36.0717 34.3235 35.6616 34.4016 35.5256 34.4284C35.3085 34.4715 34.2422 34.6867 34.0088 34.7365C33.7757 34.7867 32.6722 35.0343 32.6257 35.0523C32.5792 35.0702 32.4828 35.1865 32.4598 35.261C32.4369 35.3361 32.4299 35.41 32.5041 35.4425C32.5792 35.475 33.1174 35.5431 33.3726 35.5565C33.6272 35.5717 34.0859 35.5661 34.3372 35.5481C34.5882 35.5294 35.553 35.4016 35.553 35.4139C35.553 35.4268 33.9553 35.7067 33.783 35.7386C33.6096 35.7706 32.7969 35.9025 32.7663 35.9132C32.7355 35.9238 32.7002 35.9457 32.6489 36.0202C32.5971 36.0947 32.5719 36.2006 32.5736 36.227C32.5761 36.2538 32.5778 36.3113 32.6503 36.318C32.7237 36.3247 33.1356 36.3303 33.5009 36.332C33.8665 36.3342 34.5686 36.304 34.8378 36.2917C35.1068 36.2788 36.0949 36.2073 36.261 36.195C36.2739 36.194 36.2905 36.1926 36.3103 36.191L36.3039 36.323C35.9725 36.3745 35.3408 36.4733 35.044 36.5309C34.6336 36.611 33.7875 36.7548 33.3605 36.8203C33.0294 36.8719 32.4668 36.9458 32.417 36.9615C32.3674 36.9772 32.2691 37.1164 32.2497 37.1988C32.2298 37.2801 32.2514 37.3411 32.2993 37.3551C32.3475 37.3697 32.7296 37.3946 32.9753 37.4092C33.221 37.4232 34.0416 37.4501 34.4338 37.4518C34.8255 37.4535 35.7884 37.4288 36.1035 37.4165C36.1449 37.4148 36.195 37.4125 36.2512 37.4098L36.2369 37.7063C36.1231 37.7133 36.0293 37.7189 35.9699 37.7224C35.6956 37.7387 34.4456 37.8224 34.1693 37.8454C33.8928 37.8689 32.8092 37.9743 32.5831 38.0023C32.3567 38.0309 31.5294 38.1449 31.4692 38.1578C31.4084 38.1701 31.3496 38.2738 31.3134 38.341C31.2784 38.4088 31.2742 38.5155 31.3067 38.5424C31.3384 38.5693 31.3726 38.557 31.5205 38.5531C31.6684 38.5497 32.8804 38.5155 33.0821 38.5105C33.2832 38.5055 34.4887 38.4999 34.7117 38.4999C34.9339 38.4999 35.9612 38.5155 36.1447 38.5211C36.1575 38.5215 36.1752 38.5222 36.1973 38.523L36.1824 38.8314C36.1162 38.8345 36.0646 38.8369 36.0341 38.8383C35.8326 38.8472 34.5781 38.9187 34.2817 38.9383C33.9858 38.9585 32.9341 39.0649 32.4422 39.1378C31.95 39.2112 31.3454 39.3874 31.2907 39.4126C31.2358 39.4373 31.1535 39.546 31.1199 39.623C31.0854 39.6998 31.084 39.7849 31.1566 39.8079C31.23 39.8314 32.2085 39.8849 32.4203 39.8992C32.6333 39.9132 33.7292 39.9452 33.9606 39.9558C34.1923 39.9667 35.3891 39.9701 35.6065 39.9701C35.6874 39.9701 35.8921 39.9691 36.1274 39.9678L36.1131 40.262C35.9719 40.2721 35.8587 40.2802 35.8001 40.2844C35.5547 40.3018 34.0108 40.4108 33.7665 40.4287C33.5225 40.4467 32.164 40.566 32.0105 40.5817C31.8575 40.5974 30.9019 40.6977 30.8537 40.7153C30.8055 40.7338 30.7206 40.8386 30.6951 40.9523C30.6702 41.0666 30.7077 41.1098 30.7576 41.1129C30.8072 41.1168 32.2055 41.0666 32.4705 41.0577C32.7355 41.0487 33.9393 41.0171 34.1352 41.0117C34.3313 41.0061 35.6665 40.9719 35.8948 40.9705C35.9322 40.9702 35.9965 40.9696 36.0789 40.9687L36.0691 41.1705C35.7239 41.1871 34.5781 41.2418 34.3052 41.2591C34.0032 41.2787 32.8184 41.3678 32.5276 41.3964C32.2374 41.4252 31.3936 41.5415 31.3207 41.5603C31.2482 41.5799 31.1605 41.7222 31.1395 41.8029C31.1182 41.8827 31.1411 41.9545 31.2014 41.962C31.2619 41.969 32.6632 42.0315 32.9554 42.0419C33.2474 42.0525 34.4153 42.1007 34.6128 42.1057C34.7738 42.1103 35.6054 42.1343 36.0218 42.1472L36.0077 42.4376C35.9804 42.4397 35.9574 42.4414 35.9394 42.4428C35.6771 42.4632 34.3565 42.5464 34.1198 42.5624C33.8825 42.5786 32.6366 42.6548 32.3551 42.6711C32.0735 42.6873 31.0655 42.7448 30.8613 42.7568C30.6556 42.7691 29.9785 42.8084 29.8824 42.819C29.7863 42.8297 29.688 43.0025 29.6686 43.072C29.6493 43.1418 29.665 43.216 29.7115 43.2236C29.7575 43.2311 29.927 43.2182 30.0533 43.2076C30.1802 43.1969 30.9697 43.1717 31.2482 43.1616C31.5258 43.1504 32.4851 43.1577 32.8644 43.1616C33.2443 43.165 34.4209 43.1986 34.7417 43.2118C34.9739 43.2203 35.5715 43.2405 35.9682 43.2542L35.9613 43.3962C35.627 43.4156 34.8389 43.4612 34.4935 43.4875C34.1181 43.5155 33.0961 43.6088 32.8557 43.641C32.615 43.6732 32.025 43.7494 31.7807 43.7909C31.537 43.8318 30.6769 43.994 30.6074 44.0133C30.538 44.0329 30.4438 44.2254 30.431 44.2932C30.4195 44.3604 30.4279 44.4235 30.5349 44.4106C30.6416 44.3985 31.8309 44.3375 32.0603 44.3268C32.2903 44.3162 33.3062 44.2949 33.6219 44.2932C33.9377 44.291 34.9109 44.2968 35.1678 44.2988C35.2915 44.2996 35.6043 44.3058 35.9169 44.3125L35.8902 44.8643C35.6906 44.8894 35.5175 44.9113 35.4158 44.9241C35.1087 44.9639 34.0629 45.1073 33.8472 45.1381C33.6309 45.1687 32.3156 45.3642 32.0889 45.4018C31.8634 45.4393 30.8447 45.6015 30.6862 45.6301C30.5273 45.6587 29.7345 45.7959 29.6863 45.8083C29.6381 45.8206 29.5807 45.873 29.5454 45.9526C29.509 46.0332 29.4835 46.1324 29.5028 46.1688C29.5294 46.2165 29.5653 46.2117 29.6703 46.2058C29.7757 46.2008 30.7938 46.161 31.0977 46.1487C31.4025 46.1358 32.4727 46.0814 32.6456 46.0725C32.8184 46.0629 33.9001 46.0047 34.1181 45.9974C34.3352 45.9907 35.339 45.9385 35.6771 45.9296C35.7218 45.9285 35.7766 45.9271 35.8388 45.9255L35.379 55.4204ZM35.8586 45.5166C35.509 45.5301 34.4217 45.5776 34.2545 45.5858C34.073 45.5948 33.0406 45.6654 33.0426 45.6463C33.0448 45.627 33.9948 45.5107 34.2229 45.478C34.4509 45.4466 35.5494 45.3006 35.8127 45.2679C35.8284 45.266 35.8479 45.2637 35.871 45.2609L35.8586 45.5166ZM35.9369 43.8998C35.8923 43.8986 35.8584 43.8978 35.838 43.8973C35.6491 43.8934 34.5492 43.899 34.5492 43.8816C34.5492 43.864 35.6707 43.8082 35.9041 43.7976C35.9147 43.7971 35.9274 43.7965 35.942 43.7958L35.9369 43.8998ZM36.0418 41.7345C35.7595 41.7261 35.4695 41.7173 35.348 41.7138C35.1124 41.7065 33.9802 41.6908 33.9802 41.6679C33.9802 41.6443 35.355 41.6051 35.5584 41.5998C35.6378 41.5977 35.8315 41.5904 36.0492 41.5818L36.0418 41.7345ZM36.1471 39.5606C35.7901 39.5621 35.4557 39.5627 35.3527 39.5616C35.1392 39.5588 33.92 39.5398 33.727 39.5347C33.5348 39.5291 32.7033 39.5207 32.7033 39.4944C32.7033 39.4681 34.0029 39.3554 34.6016 39.3179C34.8557 39.3022 35.8545 39.2512 36.0512 39.24C36.0769 39.2387 36.1152 39.2368 36.1629 39.2345L36.1471 39.5606ZM36.2709 37.0045C35.9616 37.0168 35.6224 37.0284 35.5068 37.0307C35.3101 37.0346 34.3758 37.0503 34.3758 37.0374C34.3758 37.0234 35.8915 36.7592 36.0736 36.7245C36.1133 36.7169 36.1893 36.7033 36.2863 36.6861L36.2709 37.0045ZM36.3296 35.793C36.0391 35.8146 35.1978 35.8777 35.1978 35.8658C35.1978 35.8524 36.1806 35.6821 36.2969 35.6602C36.3054 35.6586 36.3188 35.6561 36.3363 35.6529L36.3296 35.793ZM36.3729 34.8975C36.3193 34.9057 36.2784 34.9119 36.2554 34.9155C36.0954 34.9408 35.2519 35.0719 34.821 35.1094C34.4756 35.1391 33.8637 35.1685 33.8637 35.1531C33.8637 35.1385 34.8863 34.9447 35.0317 34.9155C35.1785 34.8864 36.0778 34.7096 36.2512 34.6749C36.2772 34.6697 36.3239 34.6605 36.385 34.6484L36.3729 34.8975ZM36.4341 33.6351C35.8836 33.6769 35.128 33.7033 35.128 33.6879C35.128 33.6722 35.9425 33.5742 36.0467 33.5602C36.0854 33.5545 36.2458 33.5328 36.4403 33.5065L36.4341 33.6351ZM36.5926 30.3628C36.5828 30.3615 36.575 30.3604 36.5694 30.3597C36.4871 30.3473 36.1966 30.3084 36.1974 30.3017C36.1986 30.2969 36.4251 30.2614 36.5988 30.2346L36.5926 30.3628ZM36.6386 29.4125C36.4787 29.3983 36.3341 29.3832 36.3341 29.3794C36.3341 29.3747 36.5078 29.3331 36.6441 29.2994L36.6386 29.4125ZM36.6814 28.5278C36.5936 28.5195 36.5199 28.5111 36.5199 28.5064C36.5199 28.5012 36.607 28.4396 36.6887 28.3773L36.6814 28.5278ZM37.1014 32.1999C37.3523 32.2246 37.6646 32.2581 37.6646 32.2678C37.6646 32.2764 37.3799 32.2912 37.1061 32.3039L37.1014 32.1999ZM37.1815 33.9695C37.522 33.9382 38.2196 33.8751 38.2196 33.8899C38.2196 33.9028 37.6022 34.0218 37.1875 34.1026L37.1815 33.9695ZM37.3345 37.3514C37.3968 37.3479 37.4494 37.345 37.4884 37.3428C37.7394 37.3282 38.7947 37.2857 39.027 37.2784C39.2587 37.2717 40.0714 37.2464 40.0714 37.2683C40.0714 37.289 38.9575 37.4624 38.4244 37.523C38.1618 37.5532 37.8755 37.5868 37.5651 37.6154C37.5112 37.6205 37.4361 37.6265 37.3473 37.6332L37.3345 37.3514ZM37.3899 38.5754C37.5461 38.5826 37.6653 38.5884 37.7058 38.5906C37.8556 38.5996 38.9665 38.6562 38.9665 38.6747C38.9665 38.6926 37.7472 38.7548 37.5475 38.7654C37.517 38.767 37.4653 38.7695 37.3989 38.7728L37.3899 38.5754ZM37.4525 39.9569C37.8372 39.9509 38.4149 39.9409 38.5459 39.9385C38.7278 39.9351 39.861 39.9043 39.8593 39.9239C39.8573 39.9435 39.0858 40.0082 38.9253 40.0278C38.7657 40.0468 37.6673 40.1477 37.4619 40.1648L37.4525 39.9569ZM37.4975 40.953C37.5299 40.9527 37.5559 40.9525 37.5744 40.9523C37.7878 40.9507 38.9628 40.9563 39.1424 40.9596C39.3228 40.9635 40.5168 40.9775 40.5154 40.9924C40.5138 41.0061 39.6937 41.0308 39.5436 41.0381C39.394 41.0453 38.3179 41.0806 38.1249 41.0899C38.056 41.0931 37.8058 41.1027 37.5048 41.1141L37.4975 40.953ZM37.5531 42.1801C37.587 42.1806 37.612 42.1808 37.6256 42.1808C37.7509 42.1808 38.867 42.1845 38.8645 42.2007C38.8628 42.2164 37.9307 42.2808 37.7256 42.3016C37.6941 42.3051 37.6359 42.3104 37.5593 42.3169L37.5531 42.1801ZM37.6518 44.3612C37.9408 44.3707 38.1986 44.3794 38.2694 44.3823C38.4367 44.3898 39.6562 44.4128 39.6562 44.4302C39.6562 44.449 38.9418 44.5072 38.786 44.5249C38.6847 44.5366 38.1376 44.5962 37.6648 44.6491L37.6518 44.3612Z" fill="#F7F4EF"/>
</g>
<defs>
<clipPath id="clip0_21_1032">
<rect width="72" height="71" fill="white"/>
</clipPath>
</defs>
</svg>
